<svg width="46" height="46" viewBox="0 0 46 46" fill="none" xmlns="http://www.w3.org/2000/svg">
<rect x="24.1605" y="21" width="21" height="5.03344" transform="rotate(-90 24.1605 21)" fill="#FF1100"/>
<rect x="32.214" y="21" width="21" height="5.03344" transform="rotate(-90 32.214 21)" fill="#FF1100"/>
<rect x="40.2676" y="21" width="21" height="5.03344" transform="rotate(-90 40.2676 21)" fill="#FF1100"/>
<rect x="16.107" y="46" width="21" height="5.03344" transform="rotate(-90 16.107 46)" fill="#215E21"/>
<rect x="8.05347" y="46" width="21" height="5.03344" transform="rotate(-90 8.05347 46)" fill="#215E21"/>
<rect y="46" width="21" height="5.03344" transform="rotate(-90 0 46)" fill="#215E21"/>
<rect width="21.1405" height="5" fill="#A0030E"/>
<rect y="8" width="21.1405" height="5" fill="#A0030E"/>
<rect y="16" width="21.1405" height="5" fill="#A0030E"/>
<rect x="24.1605" y="25" width="21.1405" height="5" fill="#C2C264"/>
<rect x="24.1605" y="33" width="21.1405" height="5" fill="#C2C264"/>
<rect x="24.1605" y="41" width="21.1405" height="5" fill="#C2C264"/>
</svg>
