<svg width="291" height="90" viewBox="0 0 291 90" fill="none" xmlns="http://www.w3.org/2000/svg">
<rect width="291" height="90" fill="#2F2F4F"/>
<rect x="41.1605" y="36" width="21" height="5.03344" transform="rotate(-90 41.1605 36)" fill="#FF1100"/>
<rect x="49.214" y="36" width="21" height="5.03344" transform="rotate(-90 49.214 36)" fill="#FF1100"/>
<rect x="57.2676" y="36" width="21" height="5.03344" transform="rotate(-90 57.2676 36)" fill="#FF1100"/>
<rect x="33.107" y="61" width="21" height="5.03344" transform="rotate(-90 33.107 61)" fill="#215E21"/>
<rect x="25.0535" y="61" width="21" height="5.03344" transform="rotate(-90 25.0535 61)" fill="#215E21"/>
<rect x="17" y="61" width="21" height="5.03344" transform="rotate(-90 17 61)" fill="#215E21"/>
<rect x="17" y="15" width="21.1405" height="5" fill="#A0030E"/>
<rect x="17" y="23" width="21.1405" height="5" fill="#A0030E"/>
<rect x="17" y="31" width="21.1405" height="5" fill="#A0030E"/>
<rect x="41.1605" y="40" width="21.1405" height="5" fill="#C2C264"/>
<rect x="41.1605" y="48" width="21.1405" height="5" fill="#C2C264"/>
<rect x="41.1605" y="56" width="21.1405" height="5" fill="#C2C264"/>
<mask id="path-14-outside-1_1_21" maskUnits="userSpaceOnUse" x="74" y="14" width="200" height="62" fill="black">
<rect fill="white" x="74" y="14" width="200" height="62"/>
<path d="M75.0014 17.1875C75.0014 16.5833 75.2098 16.0729 75.6264 15.6562C76.0639 15.2188 76.5848 15 77.1889 15C77.7931 15 78.3139 15.2188 78.7514 15.6562C79.1889 16.0729 79.3973 16.5938 79.3764 17.2188V41.5938C81.6473 38.9688 84.0014 36.4271 86.4389 33.9688C88.8764 31.4896 91.2827 28.9896 93.6577 26.4688C94.0743 26.0104 94.6056 25.7812 95.2514 25.7812C95.8556 25.7812 96.366 26 96.7827 26.4375C97.2202 26.8542 97.4389 27.3646 97.4389 27.9688C97.4389 28.5729 97.2306 29.0833 96.8139 29.5L86.0952 40.625L97.2514 55.2812C97.5639 55.6771 97.7202 56.125 97.7202 56.625C97.7202 57.2292 97.5014 57.75 97.0639 58.1875C96.6473 58.6042 96.1368 58.8125 95.5327 58.8125C94.8035 58.8125 94.2202 58.5208 93.7827 57.9375L83.0327 43.4062L79.3764 46.9688V56.5312C79.3764 57.1354 79.1577 57.6562 78.7202 58.0938C78.3035 58.5104 77.7931 58.7188 77.1889 58.7188C76.5848 58.7188 76.0639 58.5 75.6264 58.0625C75.1889 57.625 74.9806 57.1042 75.0014 56.5V17.1875Z"/>
<path d="M127.189 59C126.543 59 126.012 58.7708 125.595 58.3125C125.199 57.8542 125.001 57.3021 125.001 56.6562L124.845 52.9375C124.116 53.8333 123.251 54.75 122.251 55.6875C121.251 56.6042 120.116 57.375 118.845 58C117.574 58.6042 116.137 58.9062 114.533 58.9062C111.783 58.9062 109.564 58.1979 107.876 56.7812C106.189 55.3646 104.96 53.5 104.189 51.1875C103.439 48.875 103.064 46.3958 103.064 43.75L103.095 28.5938C103.095 27.9479 103.324 27.3958 103.783 26.9375C104.241 26.4792 104.793 26.25 105.439 26.25C106.106 26.25 106.658 26.4792 107.095 26.9375C107.554 27.3958 107.783 27.9583 107.783 28.625L107.751 43.75C107.751 45.5833 107.939 47.3021 108.314 48.9062C108.689 50.4896 109.366 51.7708 110.345 52.75C111.345 53.7292 112.741 54.2188 114.533 54.2188C117.929 54.2188 120.491 53.3125 122.22 51.5C123.949 49.6875 124.814 47.1354 124.814 43.8438V28.5312C124.814 27.8854 125.043 27.3333 125.501 26.875C125.96 26.4167 126.512 26.1875 127.158 26.1875C127.824 26.1875 128.376 26.4167 128.814 26.875C129.272 27.3333 129.501 27.8958 129.501 28.5625L129.533 56.625C129.533 57.2708 129.304 57.8229 128.845 58.2812C128.408 58.7604 127.856 59 127.189 59Z"/>
<path d="M139.408 26.0938C140.054 26.0938 140.574 26.3229 140.97 26.7812C141.387 27.2396 141.595 27.7917 141.595 28.4375L141.751 32.1562C142.501 31.2396 143.366 30.3229 144.345 29.4062C145.345 28.4896 146.481 27.7292 147.751 27.125C149.043 26.5 150.481 26.1875 152.064 26.1875C154.835 26.1875 157.054 26.8958 158.72 28.3125C160.408 29.7292 161.626 31.5938 162.376 33.9062C163.147 36.1979 163.533 38.6771 163.533 41.3438L163.501 56.5C163.501 57.1458 163.272 57.6979 162.814 58.1562C162.356 58.6146 161.804 58.8438 161.158 58.8438C160.512 58.8438 159.96 58.6146 159.501 58.1562C159.043 57.6771 158.814 57.1146 158.814 56.4688L158.845 41.3438C158.845 39.4896 158.658 37.7708 158.283 36.1875C157.908 34.6042 157.231 33.3229 156.251 32.3438C155.272 31.3646 153.876 30.875 152.064 30.875C148.668 30.875 146.106 31.7812 144.376 33.5938C142.647 35.4062 141.783 37.9583 141.783 41.25V56.5625C141.783 57.2083 141.554 57.7604 141.095 58.2188C140.637 58.6771 140.085 58.9062 139.439 58.9062C138.793 58.9062 138.241 58.6667 137.783 58.1875C137.324 57.7292 137.095 57.1771 137.095 56.5312L137.064 28.4688C137.064 27.8021 137.283 27.2396 137.72 26.7812C138.179 26.3229 138.741 26.0938 139.408 26.0938Z"/>
<path d="M173.408 26.0938C174.054 26.0938 174.574 26.3229 174.97 26.7812C175.387 27.2396 175.595 27.7917 175.595 28.4375L175.751 32.1562C176.501 31.2396 177.366 30.3229 178.345 29.4062C179.345 28.4896 180.481 27.7292 181.751 27.125C183.043 26.5 184.481 26.1875 186.064 26.1875C188.835 26.1875 191.054 26.8958 192.72 28.3125C194.408 29.7292 195.626 31.5938 196.376 33.9062C197.147 36.1979 197.533 38.6771 197.533 41.3438L197.501 56.5C197.501 57.1458 197.272 57.6979 196.814 58.1562C196.356 58.6146 195.804 58.8438 195.158 58.8438C194.512 58.8438 193.96 58.6146 193.501 58.1562C193.043 57.6771 192.814 57.1146 192.814 56.4688L192.845 41.3438C192.845 39.4896 192.658 37.7708 192.283 36.1875C191.908 34.6042 191.231 33.3229 190.251 32.3438C189.272 31.3646 187.876 30.875 186.064 30.875C182.668 30.875 180.106 31.7812 178.376 33.5938C176.647 35.4062 175.783 37.9583 175.783 41.25V56.5625C175.783 57.2083 175.554 57.7604 175.095 58.2188C174.637 58.6771 174.085 58.9062 173.439 58.9062C172.793 58.9062 172.241 58.6667 171.783 58.1875C171.324 57.7292 171.095 57.1771 171.095 56.5312L171.064 28.4688C171.064 27.8021 171.283 27.2396 171.72 26.7812C172.179 26.3229 172.741 26.0938 173.408 26.0938Z"/>
<path d="M219.626 26.375C221.793 26.375 223.783 26.9167 225.595 28C227.428 29.0833 229.022 30.3542 230.376 31.8125L230.533 28.625C230.533 27.9792 230.741 27.4271 231.158 26.9688C231.574 26.5104 232.106 26.2812 232.751 26.2812C233.397 26.2812 233.949 26.5104 234.408 26.9688C234.866 27.4271 235.095 27.9792 235.095 28.625L235.064 28.6875L234.845 58.1875C234.824 60.4167 234.366 62.5208 233.47 64.5C232.595 66.4792 231.387 68.2188 229.845 69.7188C228.303 71.2396 226.533 72.4271 224.533 73.2812C222.533 74.1354 220.408 74.5625 218.158 74.5625C215.637 74.5625 213.22 74 210.908 72.875C208.595 71.7708 206.647 70.2292 205.064 68.25C204.71 67.8125 204.533 67.3125 204.533 66.75C204.533 66.1042 204.762 65.5521 205.22 65.0938C205.678 64.6354 206.231 64.4062 206.876 64.4062C207.668 64.4062 208.293 64.7188 208.751 65.3438C209.856 66.7396 211.251 67.8438 212.939 68.6562C214.647 69.4688 216.387 69.875 218.158 69.875C220.324 69.875 222.303 69.3333 224.095 68.25C225.908 67.1875 227.356 65.7604 228.439 63.9688C229.543 62.1979 230.116 60.25 230.158 58.125L230.189 53.4375C228.814 54.8333 227.21 56.0938 225.376 57.2188C223.564 58.3229 221.647 58.875 219.626 58.875C217.481 58.875 215.481 58.4375 213.626 57.5625C211.793 56.6667 210.189 55.4583 208.814 53.9375C207.439 52.4167 206.366 50.6875 205.595 48.75C204.824 46.7917 204.439 44.75 204.439 42.625C204.439 40.5 204.814 38.4688 205.564 36.5312C206.335 34.5938 207.408 32.8646 208.783 31.3438C210.158 29.8021 211.762 28.5938 213.595 27.7188C215.449 26.8229 217.46 26.375 219.626 26.375ZM230.095 42.625C230.095 40.6042 229.637 38.7188 228.72 36.9688C227.824 35.2188 226.585 33.8021 225.001 32.7188C223.418 31.6146 221.626 31.0625 219.626 31.0625C217.606 31.0625 215.803 31.6146 214.22 32.7188C212.658 33.8021 211.418 35.2188 210.501 36.9688C209.606 38.7188 209.158 40.6042 209.158 42.625C209.158 44.625 209.616 46.5104 210.533 48.2812C211.449 50.0312 212.689 51.4583 214.251 52.5625C215.835 53.6458 217.626 54.1875 219.626 54.1875C221.626 54.1875 223.408 53.6458 224.97 52.5625C226.553 51.4583 227.803 50.0312 228.72 48.2812C229.637 46.5104 230.095 44.625 230.095 42.625Z"/>
<path d="M257.283 26.1562C259.512 26.1562 261.512 26.8021 263.283 28.0938C265.074 29.3854 266.637 30.75 267.97 32.1875L268.251 28.25C268.251 27.6458 268.418 27.1354 268.751 26.7188C269.085 26.2812 269.553 26.0625 270.158 26.0625C270.762 26.0625 271.272 26.2812 271.689 26.7188C272.126 27.1354 272.345 27.6458 272.345 28.25V56.5C272.345 57.1042 272.126 57.625 271.689 58.0625C271.272 58.4792 270.762 58.6875 270.158 58.6875C269.553 58.6875 269.033 58.4792 268.595 58.0625C268.178 57.625 267.97 57.1042 267.97 56.5V52.9375C266.595 54.4375 264.96 55.7917 263.064 57C261.189 58.2083 259.21 58.8125 257.126 58.8125C254.981 58.8125 252.991 58.375 251.158 57.5C249.324 56.6042 247.72 55.3958 246.345 53.875C244.97 52.3542 243.897 50.625 243.126 48.6875C242.376 46.7292 242.001 44.6771 242.001 42.5312C242.001 40.4062 242.376 38.3646 243.126 36.4062C243.897 34.4271 244.97 32.6771 246.345 31.1562C247.741 29.6146 249.366 28.3958 251.22 27.5C253.074 26.6042 255.095 26.1562 257.283 26.1562ZM268.126 42.3438C268.126 40.3229 267.637 38.4479 266.658 36.7188C265.699 34.9688 264.397 33.5521 262.751 32.4688C261.126 31.3854 259.314 30.8438 257.314 30.8438C255.293 30.8438 253.481 31.3958 251.876 32.5C250.272 33.6042 249.001 35.0521 248.064 36.8438C247.147 38.6146 246.689 40.5104 246.689 42.5312C246.689 44.5312 247.147 46.4167 248.064 48.1875C248.981 49.9583 250.22 51.3958 251.783 52.5C253.366 53.5833 255.147 54.125 257.126 54.125C259.126 54.125 260.96 53.5729 262.626 52.4688C264.293 51.3438 265.626 49.8854 266.626 48.0938C267.626 46.2812 268.126 44.3646 268.126 42.3438Z"/>
</mask>
<path d="M75.0014 17.1875C75.0014 16.5833 75.2098 16.0729 75.6264 15.6562C76.0639 15.2188 76.5848 15 77.1889 15C77.7931 15 78.3139 15.2188 78.7514 15.6562C79.1889 16.0729 79.3973 16.5938 79.3764 17.2188V41.5938C81.6473 38.9688 84.0014 36.4271 86.4389 33.9688C88.8764 31.4896 91.2827 28.9896 93.6577 26.4688C94.0743 26.0104 94.6056 25.7812 95.2514 25.7812C95.8556 25.7812 96.366 26 96.7827 26.4375C97.2202 26.8542 97.4389 27.3646 97.4389 27.9688C97.4389 28.5729 97.2306 29.0833 96.8139 29.5L86.0952 40.625L97.2514 55.2812C97.5639 55.6771 97.7202 56.125 97.7202 56.625C97.7202 57.2292 97.5014 57.75 97.0639 58.1875C96.6473 58.6042 96.1368 58.8125 95.5327 58.8125C94.8035 58.8125 94.2202 58.5208 93.7827 57.9375L83.0327 43.4062L79.3764 46.9688V56.5312C79.3764 57.1354 79.1577 57.6562 78.7202 58.0938C78.3035 58.5104 77.7931 58.7188 77.1889 58.7188C76.5848 58.7188 76.0639 58.5 75.6264 58.0625C75.1889 57.625 74.9806 57.1042 75.0014 56.5V17.1875Z" fill="#F6F6FB"/>
<path d="M127.189 59C126.543 59 126.012 58.7708 125.595 58.3125C125.199 57.8542 125.001 57.3021 125.001 56.6562L124.845 52.9375C124.116 53.8333 123.251 54.75 122.251 55.6875C121.251 56.6042 120.116 57.375 118.845 58C117.574 58.6042 116.137 58.9062 114.533 58.9062C111.783 58.9062 109.564 58.1979 107.876 56.7812C106.189 55.3646 104.96 53.5 104.189 51.1875C103.439 48.875 103.064 46.3958 103.064 43.75L103.095 28.5938C103.095 27.9479 103.324 27.3958 103.783 26.9375C104.241 26.4792 104.793 26.25 105.439 26.25C106.106 26.25 106.658 26.4792 107.095 26.9375C107.554 27.3958 107.783 27.9583 107.783 28.625L107.751 43.75C107.751 45.5833 107.939 47.3021 108.314 48.9062C108.689 50.4896 109.366 51.7708 110.345 52.75C111.345 53.7292 112.741 54.2188 114.533 54.2188C117.929 54.2188 120.491 53.3125 122.22 51.5C123.949 49.6875 124.814 47.1354 124.814 43.8438V28.5312C124.814 27.8854 125.043 27.3333 125.501 26.875C125.96 26.4167 126.512 26.1875 127.158 26.1875C127.824 26.1875 128.376 26.4167 128.814 26.875C129.272 27.3333 129.501 27.8958 129.501 28.5625L129.533 56.625C129.533 57.2708 129.304 57.8229 128.845 58.2812C128.408 58.7604 127.856 59 127.189 59Z" fill="#F6F6FB"/>
<path d="M139.408 26.0938C140.054 26.0938 140.574 26.3229 140.97 26.7812C141.387 27.2396 141.595 27.7917 141.595 28.4375L141.751 32.1562C142.501 31.2396 143.366 30.3229 144.345 29.4062C145.345 28.4896 146.481 27.7292 147.751 27.125C149.043 26.5 150.481 26.1875 152.064 26.1875C154.835 26.1875 157.054 26.8958 158.72 28.3125C160.408 29.7292 161.626 31.5938 162.376 33.9062C163.147 36.1979 163.533 38.6771 163.533 41.3438L163.501 56.5C163.501 57.1458 163.272 57.6979 162.814 58.1562C162.356 58.6146 161.804 58.8438 161.158 58.8438C160.512 58.8438 159.96 58.6146 159.501 58.1562C159.043 57.6771 158.814 57.1146 158.814 56.4688L158.845 41.3438C158.845 39.4896 158.658 37.7708 158.283 36.1875C157.908 34.6042 157.231 33.3229 156.251 32.3438C155.272 31.3646 153.876 30.875 152.064 30.875C148.668 30.875 146.106 31.7812 144.376 33.5938C142.647 35.4062 141.783 37.9583 141.783 41.25V56.5625C141.783 57.2083 141.554 57.7604 141.095 58.2188C140.637 58.6771 140.085 58.9062 139.439 58.9062C138.793 58.9062 138.241 58.6667 137.783 58.1875C137.324 57.7292 137.095 57.1771 137.095 56.5312L137.064 28.4688C137.064 27.8021 137.283 27.2396 137.72 26.7812C138.179 26.3229 138.741 26.0938 139.408 26.0938Z" fill="#F6F6FB"/>
<path d="M173.408 26.0938C174.054 26.0938 174.574 26.3229 174.97 26.7812C175.387 27.2396 175.595 27.7917 175.595 28.4375L175.751 32.1562C176.501 31.2396 177.366 30.3229 178.345 29.4062C179.345 28.4896 180.481 27.7292 181.751 27.125C183.043 26.5 184.481 26.1875 186.064 26.1875C188.835 26.1875 191.054 26.8958 192.72 28.3125C194.408 29.7292 195.626 31.5938 196.376 33.9062C197.147 36.1979 197.533 38.6771 197.533 41.3438L197.501 56.5C197.501 57.1458 197.272 57.6979 196.814 58.1562C196.356 58.6146 195.804 58.8438 195.158 58.8438C194.512 58.8438 193.96 58.6146 193.501 58.1562C193.043 57.6771 192.814 57.1146 192.814 56.4688L192.845 41.3438C192.845 39.4896 192.658 37.7708 192.283 36.1875C191.908 34.6042 191.231 33.3229 190.251 32.3438C189.272 31.3646 187.876 30.875 186.064 30.875C182.668 30.875 180.106 31.7812 178.376 33.5938C176.647 35.4062 175.783 37.9583 175.783 41.25V56.5625C175.783 57.2083 175.554 57.7604 175.095 58.2188C174.637 58.6771 174.085 58.9062 173.439 58.9062C172.793 58.9062 172.241 58.6667 171.783 58.1875C171.324 57.7292 171.095 57.1771 171.095 56.5312L171.064 28.4688C171.064 27.8021 171.283 27.2396 171.72 26.7812C172.179 26.3229 172.741 26.0938 173.408 26.0938Z" fill="#F6F6FB"/>
<path d="M219.626 26.375C221.793 26.375 223.783 26.9167 225.595 28C227.428 29.0833 229.022 30.3542 230.376 31.8125L230.533 28.625C230.533 27.9792 230.741 27.4271 231.158 26.9688C231.574 26.5104 232.106 26.2812 232.751 26.2812C233.397 26.2812 233.949 26.5104 234.408 26.9688C234.866 27.4271 235.095 27.9792 235.095 28.625L235.064 28.6875L234.845 58.1875C234.824 60.4167 234.366 62.5208 233.47 64.5C232.595 66.4792 231.387 68.2188 229.845 69.7188C228.303 71.2396 226.533 72.4271 224.533 73.2812C222.533 74.1354 220.408 74.5625 218.158 74.5625C215.637 74.5625 213.22 74 210.908 72.875C208.595 71.7708 206.647 70.2292 205.064 68.25C204.71 67.8125 204.533 67.3125 204.533 66.75C204.533 66.1042 204.762 65.5521 205.22 65.0938C205.678 64.6354 206.231 64.4062 206.876 64.4062C207.668 64.4062 208.293 64.7188 208.751 65.3438C209.856 66.7396 211.251 67.8438 212.939 68.6562C214.647 69.4688 216.387 69.875 218.158 69.875C220.324 69.875 222.303 69.3333 224.095 68.25C225.908 67.1875 227.356 65.7604 228.439 63.9688C229.543 62.1979 230.116 60.25 230.158 58.125L230.189 53.4375C228.814 54.8333 227.21 56.0938 225.376 57.2188C223.564 58.3229 221.647 58.875 219.626 58.875C217.481 58.875 215.481 58.4375 213.626 57.5625C211.793 56.6667 210.189 55.4583 208.814 53.9375C207.439 52.4167 206.366 50.6875 205.595 48.75C204.824 46.7917 204.439 44.75 204.439 42.625C204.439 40.5 204.814 38.4688 205.564 36.5312C206.335 34.5938 207.408 32.8646 208.783 31.3438C210.158 29.8021 211.762 28.5938 213.595 27.7188C215.449 26.8229 217.46 26.375 219.626 26.375ZM230.095 42.625C230.095 40.6042 229.637 38.7188 228.72 36.9688C227.824 35.2188 226.585 33.8021 225.001 32.7188C223.418 31.6146 221.626 31.0625 219.626 31.0625C217.606 31.0625 215.803 31.6146 214.22 32.7188C212.658 33.8021 211.418 35.2188 210.501 36.9688C209.606 38.7188 209.158 40.6042 209.158 42.625C209.158 44.625 209.616 46.5104 210.533 48.2812C211.449 50.0312 212.689 51.4583 214.251 52.5625C215.835 53.6458 217.626 54.1875 219.626 54.1875C221.626 54.1875 223.408 53.6458 224.97 52.5625C226.553 51.4583 227.803 50.0312 228.72 48.2812C229.637 46.5104 230.095 44.625 230.095 42.625Z" fill="#F6F6FB"/>
<path d="M257.283 26.1562C259.512 26.1562 261.512 26.8021 263.283 28.0938C265.074 29.3854 266.637 30.75 267.97 32.1875L268.251 28.25C268.251 27.6458 268.418 27.1354 268.751 26.7188C269.085 26.2812 269.553 26.0625 270.158 26.0625C270.762 26.0625 271.272 26.2812 271.689 26.7188C272.126 27.1354 272.345 27.6458 272.345 28.25V56.5C272.345 57.1042 272.126 57.625 271.689 58.0625C271.272 58.4792 270.762 58.6875 270.158 58.6875C269.553 58.6875 269.033 58.4792 268.595 58.0625C268.178 57.625 267.97 57.1042 267.97 56.5V52.9375C266.595 54.4375 264.96 55.7917 263.064 57C261.189 58.2083 259.21 58.8125 257.126 58.8125C254.981 58.8125 252.991 58.375 251.158 57.5C249.324 56.6042 247.72 55.3958 246.345 53.875C244.97 52.3542 243.897 50.625 243.126 48.6875C242.376 46.7292 242.001 44.6771 242.001 42.5312C242.001 40.4062 242.376 38.3646 243.126 36.4062C243.897 34.4271 244.97 32.6771 246.345 31.1562C247.741 29.6146 249.366 28.3958 251.22 27.5C253.074 26.6042 255.095 26.1562 257.283 26.1562ZM268.126 42.3438C268.126 40.3229 267.637 38.4479 266.658 36.7188C265.699 34.9688 264.397 33.5521 262.751 32.4688C261.126 31.3854 259.314 30.8438 257.314 30.8438C255.293 30.8438 253.481 31.3958 251.876 32.5C250.272 33.6042 249.001 35.0521 248.064 36.8438C247.147 38.6146 246.689 40.5104 246.689 42.5312C246.689 44.5312 247.147 46.4167 248.064 48.1875C248.981 49.9583 250.22 51.3958 251.783 52.5C253.366 53.5833 255.147 54.125 257.126 54.125C259.126 54.125 260.96 53.5729 262.626 52.4688C264.293 51.3438 265.626 49.8854 266.626 48.0938C267.626 46.2812 268.126 44.3646 268.126 42.3438Z" fill="#F6F6FB"/>
<path d="M75.0014 17.1875C75.0014 16.5833 75.2098 16.0729 75.6264 15.6562C76.0639 15.2188 76.5848 15 77.1889 15C77.7931 15 78.3139 15.2188 78.7514 15.6562C79.1889 16.0729 79.3973 16.5938 79.3764 17.2188V41.5938C81.6473 38.9688 84.0014 36.4271 86.4389 33.9688C88.8764 31.4896 91.2827 28.9896 93.6577 26.4688C94.0743 26.0104 94.6056 25.7812 95.2514 25.7812C95.8556 25.7812 96.366 26 96.7827 26.4375C97.2202 26.8542 97.4389 27.3646 97.4389 27.9688C97.4389 28.5729 97.2306 29.0833 96.8139 29.5L86.0952 40.625L97.2514 55.2812C97.5639 55.6771 97.7202 56.125 97.7202 56.625C97.7202 57.2292 97.5014 57.75 97.0639 58.1875C96.6473 58.6042 96.1368 58.8125 95.5327 58.8125C94.8035 58.8125 94.2202 58.5208 93.7827 57.9375L83.0327 43.4062L79.3764 46.9688V56.5312C79.3764 57.1354 79.1577 57.6562 78.7202 58.0938C78.3035 58.5104 77.7931 58.7188 77.1889 58.7188C76.5848 58.7188 76.0639 58.5 75.6264 58.0625C75.1889 57.625 74.9806 57.1042 75.0014 56.5V17.1875Z" stroke="#2F2F4F" stroke-width="2" mask="url(#path-14-outside-1_1_21)"/>
<path d="M127.189 59C126.543 59 126.012 58.7708 125.595 58.3125C125.199 57.8542 125.001 57.3021 125.001 56.6562L124.845 52.9375C124.116 53.8333 123.251 54.75 122.251 55.6875C121.251 56.6042 120.116 57.375 118.845 58C117.574 58.6042 116.137 58.9062 114.533 58.9062C111.783 58.9062 109.564 58.1979 107.876 56.7812C106.189 55.3646 104.96 53.5 104.189 51.1875C103.439 48.875 103.064 46.3958 103.064 43.75L103.095 28.5938C103.095 27.9479 103.324 27.3958 103.783 26.9375C104.241 26.4792 104.793 26.25 105.439 26.25C106.106 26.25 106.658 26.4792 107.095 26.9375C107.554 27.3958 107.783 27.9583 107.783 28.625L107.751 43.75C107.751 45.5833 107.939 47.3021 108.314 48.9062C108.689 50.4896 109.366 51.7708 110.345 52.75C111.345 53.7292 112.741 54.2188 114.533 54.2188C117.929 54.2188 120.491 53.3125 122.22 51.5C123.949 49.6875 124.814 47.1354 124.814 43.8438V28.5312C124.814 27.8854 125.043 27.3333 125.501 26.875C125.96 26.4167 126.512 26.1875 127.158 26.1875C127.824 26.1875 128.376 26.4167 128.814 26.875C129.272 27.3333 129.501 27.8958 129.501 28.5625L129.533 56.625C129.533 57.2708 129.304 57.8229 128.845 58.2812C128.408 58.7604 127.856 59 127.189 59Z" stroke="#2F2F4F" stroke-width="2" mask="url(#path-14-outside-1_1_21)"/>
<path d="M139.408 26.0938C140.054 26.0938 140.574 26.3229 140.97 26.7812C141.387 27.2396 141.595 27.7917 141.595 28.4375L141.751 32.1562C142.501 31.2396 143.366 30.3229 144.345 29.4062C145.345 28.4896 146.481 27.7292 147.751 27.125C149.043 26.5 150.481 26.1875 152.064 26.1875C154.835 26.1875 157.054 26.8958 158.72 28.3125C160.408 29.7292 161.626 31.5938 162.376 33.9062C163.147 36.1979 163.533 38.6771 163.533 41.3438L163.501 56.5C163.501 57.1458 163.272 57.6979 162.814 58.1562C162.356 58.6146 161.804 58.8438 161.158 58.8438C160.512 58.8438 159.96 58.6146 159.501 58.1562C159.043 57.6771 158.814 57.1146 158.814 56.4688L158.845 41.3438C158.845 39.4896 158.658 37.7708 158.283 36.1875C157.908 34.6042 157.231 33.3229 156.251 32.3438C155.272 31.3646 153.876 30.875 152.064 30.875C148.668 30.875 146.106 31.7812 144.376 33.5938C142.647 35.4062 141.783 37.9583 141.783 41.25V56.5625C141.783 57.2083 141.554 57.7604 141.095 58.2188C140.637 58.6771 140.085 58.9062 139.439 58.9062C138.793 58.9062 138.241 58.6667 137.783 58.1875C137.324 57.7292 137.095 57.1771 137.095 56.5312L137.064 28.4688C137.064 27.8021 137.283 27.2396 137.72 26.7812C138.179 26.3229 138.741 26.0938 139.408 26.0938Z" stroke="#2F2F4F" stroke-width="2" mask="url(#path-14-outside-1_1_21)"/>
<path d="M173.408 26.0938C174.054 26.0938 174.574 26.3229 174.97 26.7812C175.387 27.2396 175.595 27.7917 175.595 28.4375L175.751 32.1562C176.501 31.2396 177.366 30.3229 178.345 29.4062C179.345 28.4896 180.481 27.7292 181.751 27.125C183.043 26.5 184.481 26.1875 186.064 26.1875C188.835 26.1875 191.054 26.8958 192.72 28.3125C194.408 29.7292 195.626 31.5938 196.376 33.9062C197.147 36.1979 197.533 38.6771 197.533 41.3438L197.501 56.5C197.501 57.1458 197.272 57.6979 196.814 58.1562C196.356 58.6146 195.804 58.8438 195.158 58.8438C194.512 58.8438 193.96 58.6146 193.501 58.1562C193.043 57.6771 192.814 57.1146 192.814 56.4688L192.845 41.3438C192.845 39.4896 192.658 37.7708 192.283 36.1875C191.908 34.6042 191.231 33.3229 190.251 32.3438C189.272 31.3646 187.876 30.875 186.064 30.875C182.668 30.875 180.106 31.7812 178.376 33.5938C176.647 35.4062 175.783 37.9583 175.783 41.25V56.5625C175.783 57.2083 175.554 57.7604 175.095 58.2188C174.637 58.6771 174.085 58.9062 173.439 58.9062C172.793 58.9062 172.241 58.6667 171.783 58.1875C171.324 57.7292 171.095 57.1771 171.095 56.5312L171.064 28.4688C171.064 27.8021 171.283 27.2396 171.72 26.7812C172.179 26.3229 172.741 26.0938 173.408 26.0938Z" stroke="#2F2F4F" stroke-width="2" mask="url(#path-14-outside-1_1_21)"/>
<path d="M219.626 26.375C221.793 26.375 223.783 26.9167 225.595 28C227.428 29.0833 229.022 30.3542 230.376 31.8125L230.533 28.625C230.533 27.9792 230.741 27.4271 231.158 26.9688C231.574 26.5104 232.106 26.2812 232.751 26.2812C233.397 26.2812 233.949 26.5104 234.408 26.9688C234.866 27.4271 235.095 27.9792 235.095 28.625L235.064 28.6875L234.845 58.1875C234.824 60.4167 234.366 62.5208 233.47 64.5C232.595 66.4792 231.387 68.2188 229.845 69.7188C228.303 71.2396 226.533 72.4271 224.533 73.2812C222.533 74.1354 220.408 74.5625 218.158 74.5625C215.637 74.5625 213.22 74 210.908 72.875C208.595 71.7708 206.647 70.2292 205.064 68.25C204.71 67.8125 204.533 67.3125 204.533 66.75C204.533 66.1042 204.762 65.5521 205.22 65.0938C205.678 64.6354 206.231 64.4062 206.876 64.4062C207.668 64.4062 208.293 64.7188 208.751 65.3438C209.856 66.7396 211.251 67.8438 212.939 68.6562C214.647 69.4688 216.387 69.875 218.158 69.875C220.324 69.875 222.303 69.3333 224.095 68.25C225.908 67.1875 227.356 65.7604 228.439 63.9688C229.543 62.1979 230.116 60.25 230.158 58.125L230.189 53.4375C228.814 54.8333 227.21 56.0938 225.376 57.2188C223.564 58.3229 221.647 58.875 219.626 58.875C217.481 58.875 215.481 58.4375 213.626 57.5625C211.793 56.6667 210.189 55.4583 208.814 53.9375C207.439 52.4167 206.366 50.6875 205.595 48.75C204.824 46.7917 204.439 44.75 204.439 42.625C204.439 40.5 204.814 38.4688 205.564 36.5312C206.335 34.5938 207.408 32.8646 208.783 31.3438C210.158 29.8021 211.762 28.5938 213.595 27.7188C215.449 26.8229 217.46 26.375 219.626 26.375ZM230.095 42.625C230.095 40.6042 229.637 38.7188 228.72 36.9688C227.824 35.2188 226.585 33.8021 225.001 32.7188C223.418 31.6146 221.626 31.0625 219.626 31.0625C217.606 31.0625 215.803 31.6146 214.22 32.7188C212.658 33.8021 211.418 35.2188 210.501 36.9688C209.606 38.7188 209.158 40.6042 209.158 42.625C209.158 44.625 209.616 46.5104 210.533 48.2812C211.449 50.0312 212.689 51.4583 214.251 52.5625C215.835 53.6458 217.626 54.1875 219.626 54.1875C221.626 54.1875 223.408 53.6458 224.97 52.5625C226.553 51.4583 227.803 50.0312 228.72 48.2812C229.637 46.5104 230.095 44.625 230.095 42.625Z" stroke="#2F2F4F" stroke-width="2" mask="url(#path-14-outside-1_1_21)"/>
<path d="M257.283 26.1562C259.512 26.1562 261.512 26.8021 263.283 28.0938C265.074 29.3854 266.637 30.75 267.97 32.1875L268.251 28.25C268.251 27.6458 268.418 27.1354 268.751 26.7188C269.085 26.2812 269.553 26.0625 270.158 26.0625C270.762 26.0625 271.272 26.2812 271.689 26.7188C272.126 27.1354 272.345 27.6458 272.345 28.25V56.5C272.345 57.1042 272.126 57.625 271.689 58.0625C271.272 58.4792 270.762 58.6875 270.158 58.6875C269.553 58.6875 269.033 58.4792 268.595 58.0625C268.178 57.625 267.97 57.1042 267.97 56.5V52.9375C266.595 54.4375 264.96 55.7917 263.064 57C261.189 58.2083 259.21 58.8125 257.126 58.8125C254.981 58.8125 252.991 58.375 251.158 57.5C249.324 56.6042 247.72 55.3958 246.345 53.875C244.97 52.3542 243.897 50.625 243.126 48.6875C242.376 46.7292 242.001 44.6771 242.001 42.5312C242.001 40.4062 242.376 38.3646 243.126 36.4062C243.897 34.4271 244.97 32.6771 246.345 31.1562C247.741 29.6146 249.366 28.3958 251.22 27.5C253.074 26.6042 255.095 26.1562 257.283 26.1562ZM268.126 42.3438C268.126 40.3229 267.637 38.4479 266.658 36.7188C265.699 34.9688 264.397 33.5521 262.751 32.4688C261.126 31.3854 259.314 30.8438 257.314 30.8438C255.293 30.8438 253.481 31.3958 251.876 32.5C250.272 33.6042 249.001 35.0521 248.064 36.8438C247.147 38.6146 246.689 40.5104 246.689 42.5312C246.689 44.5312 247.147 46.4167 248.064 48.1875C248.981 49.9583 250.22 51.3958 251.783 52.5C253.366 53.5833 255.147 54.125 257.126 54.125C259.126 54.125 260.96 53.5729 262.626 52.4688C264.293 51.3438 265.626 49.8854 266.626 48.0938C267.626 46.2812 268.126 44.3646 268.126 42.3438Z" stroke="#2F2F4F" stroke-width="2" mask="url(#path-14-outside-1_1_21)"/>
</svg>
