<svg width="200" height="62" viewBox="0 0 200 62" fill="none" xmlns="http://www.w3.org/2000/svg">
<mask id="path-1-outside-1_1_16" maskUnits="userSpaceOnUse" x="0" y="0" width="200" height="62" fill="black">
<rect fill="white" width="200" height="62"/>
<path d="M1.00142 3.1875C1.00142 2.58333 1.20975 2.07292 1.62642 1.65625C2.06392 1.21875 2.58475 1 3.18892 1C3.79309 1 4.31392 1.21875 4.75142 1.65625C5.18892 2.07292 5.39725 2.59375 5.37642 3.21875V27.5938C7.64725 24.9688 10.0014 22.4271 12.4389 19.9688C14.8764 17.4896 17.2827 14.9896 19.6577 12.4688C20.0743 12.0104 20.6056 11.7812 21.2514 11.7812C21.8556 11.7812 22.366 12 22.7827 12.4375C23.2202 12.8542 23.4389 13.3646 23.4389 13.9688C23.4389 14.5729 23.2306 15.0833 22.8139 15.5L12.0952 26.625L23.2514 41.2812C23.5639 41.6771 23.7202 42.125 23.7202 42.625C23.7202 43.2292 23.5014 43.75 23.0639 44.1875C22.6473 44.6042 22.1368 44.8125 21.5327 44.8125C20.8035 44.8125 20.2202 44.5208 19.7827 43.9375L9.03267 29.4062L5.37642 32.9688V42.5312C5.37642 43.1354 5.15767 43.6562 4.72017 44.0938C4.3035 44.5104 3.79309 44.7188 3.18892 44.7188C2.58475 44.7188 2.06392 44.5 1.62642 44.0625C1.18892 43.625 0.980587 43.1042 1.00142 42.5V3.1875Z"/>
<path d="M53.1889 45C52.5431 45 52.0118 44.7708 51.5952 44.3125C51.1993 43.8542 51.0014 43.3021 51.0014 42.6562L50.8452 38.9375C50.116 39.8333 49.2514 40.75 48.2514 41.6875C47.2514 42.6042 46.116 43.375 44.8452 44C43.5743 44.6042 42.1368 44.9062 40.5327 44.9062C37.7827 44.9062 35.5639 44.1979 33.8764 42.7812C32.1889 41.3646 30.9598 39.5 30.1889 37.1875C29.4389 34.875 29.0639 32.3958 29.0639 29.75L29.0952 14.5938C29.0952 13.9479 29.3243 13.3958 29.7827 12.9375C30.241 12.4792 30.7931 12.25 31.4389 12.25C32.1056 12.25 32.6577 12.4792 33.0952 12.9375C33.5535 13.3958 33.7827 13.9583 33.7827 14.625L33.7514 29.75C33.7514 31.5833 33.9389 33.3021 34.3139 34.9062C34.6889 36.4896 35.366 37.7708 36.3452 38.75C37.3452 39.7292 38.741 40.2188 40.5327 40.2188C43.9285 40.2188 46.491 39.3125 48.2202 37.5C49.9493 35.6875 50.8139 33.1354 50.8139 29.8438V14.5312C50.8139 13.8854 51.0431 13.3333 51.5014 12.875C51.9598 12.4167 52.5118 12.1875 53.1577 12.1875C53.8243 12.1875 54.3764 12.4167 54.8139 12.875C55.2723 13.3333 55.5014 13.8958 55.5014 14.5625L55.5327 42.625C55.5327 43.2708 55.3035 43.8229 54.8452 44.2812C54.4077 44.7604 53.8556 45 53.1889 45Z"/>
<path d="M65.4077 12.0938C66.0535 12.0938 66.5743 12.3229 66.9702 12.7812C67.3868 13.2396 67.5952 13.7917 67.5952 14.4375L67.7514 18.1562C68.5014 17.2396 69.366 16.3229 70.3452 15.4062C71.3452 14.4896 72.4806 13.7292 73.7514 13.125C75.0431 12.5 76.4806 12.1875 78.0639 12.1875C80.8348 12.1875 83.0535 12.8958 84.7202 14.3125C86.4077 15.7292 87.6264 17.5938 88.3764 19.9062C89.1473 22.1979 89.5327 24.6771 89.5327 27.3438L89.5014 42.5C89.5014 43.1458 89.2723 43.6979 88.8139 44.1562C88.3556 44.6146 87.8035 44.8438 87.1577 44.8438C86.5118 44.8438 85.9598 44.6146 85.5014 44.1562C85.0431 43.6771 84.8139 43.1146 84.8139 42.4688L84.8452 27.3438C84.8452 25.4896 84.6577 23.7708 84.2827 22.1875C83.9077 20.6042 83.2306 19.3229 82.2514 18.3438C81.2723 17.3646 79.8764 16.875 78.0639 16.875C74.6681 16.875 72.1056 17.7812 70.3764 19.5938C68.6473 21.4062 67.7827 23.9583 67.7827 27.25V42.5625C67.7827 43.2083 67.5535 43.7604 67.0952 44.2188C66.6368 44.6771 66.0848 44.9062 65.4389 44.9062C64.7931 44.9062 64.241 44.6667 63.7827 44.1875C63.3243 43.7292 63.0952 43.1771 63.0952 42.5312L63.0639 14.4688C63.0639 13.8021 63.2827 13.2396 63.7202 12.7812C64.1785 12.3229 64.741 12.0938 65.4077 12.0938Z"/>
<path d="M99.4077 12.0938C100.054 12.0938 100.574 12.3229 100.97 12.7812C101.387 13.2396 101.595 13.7917 101.595 14.4375L101.751 18.1562C102.501 17.2396 103.366 16.3229 104.345 15.4062C105.345 14.4896 106.481 13.7292 107.751 13.125C109.043 12.5 110.481 12.1875 112.064 12.1875C114.835 12.1875 117.054 12.8958 118.72 14.3125C120.408 15.7292 121.626 17.5938 122.376 19.9062C123.147 22.1979 123.533 24.6771 123.533 27.3438L123.501 42.5C123.501 43.1458 123.272 43.6979 122.814 44.1562C122.356 44.6146 121.804 44.8438 121.158 44.8438C120.512 44.8438 119.96 44.6146 119.501 44.1562C119.043 43.6771 118.814 43.1146 118.814 42.4688L118.845 27.3438C118.845 25.4896 118.658 23.7708 118.283 22.1875C117.908 20.6042 117.231 19.3229 116.251 18.3438C115.272 17.3646 113.876 16.875 112.064 16.875C108.668 16.875 106.106 17.7812 104.376 19.5938C102.647 21.4062 101.783 23.9583 101.783 27.25V42.5625C101.783 43.2083 101.554 43.7604 101.095 44.2188C100.637 44.6771 100.085 44.9062 99.4389 44.9062C98.7931 44.9062 98.241 44.6667 97.7827 44.1875C97.3243 43.7292 97.0952 43.1771 97.0952 42.5312L97.0639 14.4688C97.0639 13.8021 97.2827 13.2396 97.7202 12.7812C98.1785 12.3229 98.741 12.0938 99.4077 12.0938Z"/>
<path d="M145.626 12.375C147.793 12.375 149.783 12.9167 151.595 14C153.428 15.0833 155.022 16.3542 156.376 17.8125L156.533 14.625C156.533 13.9792 156.741 13.4271 157.158 12.9688C157.574 12.5104 158.106 12.2812 158.751 12.2812C159.397 12.2812 159.949 12.5104 160.408 12.9688C160.866 13.4271 161.095 13.9792 161.095 14.625L161.064 14.6875L160.845 44.1875C160.824 46.4167 160.366 48.5208 159.47 50.5C158.595 52.4792 157.387 54.2188 155.845 55.7188C154.303 57.2396 152.533 58.4271 150.533 59.2812C148.533 60.1354 146.408 60.5625 144.158 60.5625C141.637 60.5625 139.22 60 136.908 58.875C134.595 57.7708 132.647 56.2292 131.064 54.25C130.71 53.8125 130.533 53.3125 130.533 52.75C130.533 52.1042 130.762 51.5521 131.22 51.0938C131.678 50.6354 132.231 50.4062 132.876 50.4062C133.668 50.4062 134.293 50.7188 134.751 51.3438C135.856 52.7396 137.251 53.8438 138.939 54.6562C140.647 55.4688 142.387 55.875 144.158 55.875C146.324 55.875 148.303 55.3333 150.095 54.25C151.908 53.1875 153.356 51.7604 154.439 49.9688C155.543 48.1979 156.116 46.25 156.158 44.125L156.189 39.4375C154.814 40.8333 153.21 42.0938 151.376 43.2188C149.564 44.3229 147.647 44.875 145.626 44.875C143.481 44.875 141.481 44.4375 139.626 43.5625C137.793 42.6667 136.189 41.4583 134.814 39.9375C133.439 38.4167 132.366 36.6875 131.595 34.75C130.824 32.7917 130.439 30.75 130.439 28.625C130.439 26.5 130.814 24.4688 131.564 22.5312C132.335 20.5938 133.408 18.8646 134.783 17.3438C136.158 15.8021 137.762 14.5938 139.595 13.7188C141.449 12.8229 143.46 12.375 145.626 12.375ZM156.095 28.625C156.095 26.6042 155.637 24.7188 154.72 22.9688C153.824 21.2188 152.585 19.8021 151.001 18.7188C149.418 17.6146 147.626 17.0625 145.626 17.0625C143.606 17.0625 141.803 17.6146 140.22 18.7188C138.658 19.8021 137.418 21.2188 136.501 22.9688C135.606 24.7188 135.158 26.6042 135.158 28.625C135.158 30.625 135.616 32.5104 136.533 34.2812C137.449 36.0312 138.689 37.4583 140.251 38.5625C141.835 39.6458 143.626 40.1875 145.626 40.1875C147.626 40.1875 149.408 39.6458 150.97 38.5625C152.553 37.4583 153.803 36.0312 154.72 34.2812C155.637 32.5104 156.095 30.625 156.095 28.625Z"/>
<path d="M183.283 12.1562C185.512 12.1562 187.512 12.8021 189.283 14.0938C191.074 15.3854 192.637 16.75 193.97 18.1875L194.251 14.25C194.251 13.6458 194.418 13.1354 194.751 12.7188C195.085 12.2812 195.553 12.0625 196.158 12.0625C196.762 12.0625 197.272 12.2812 197.689 12.7188C198.126 13.1354 198.345 13.6458 198.345 14.25V42.5C198.345 43.1042 198.126 43.625 197.689 44.0625C197.272 44.4792 196.762 44.6875 196.158 44.6875C195.553 44.6875 195.033 44.4792 194.595 44.0625C194.178 43.625 193.97 43.1042 193.97 42.5V38.9375C192.595 40.4375 190.96 41.7917 189.064 43C187.189 44.2083 185.21 44.8125 183.126 44.8125C180.981 44.8125 178.991 44.375 177.158 43.5C175.324 42.6042 173.72 41.3958 172.345 39.875C170.97 38.3542 169.897 36.625 169.126 34.6875C168.376 32.7292 168.001 30.6771 168.001 28.5312C168.001 26.4062 168.376 24.3646 169.126 22.4062C169.897 20.4271 170.97 18.6771 172.345 17.1562C173.741 15.6146 175.366 14.3958 177.22 13.5C179.074 12.6042 181.095 12.1562 183.283 12.1562ZM194.126 28.3438C194.126 26.3229 193.637 24.4479 192.658 22.7188C191.699 20.9688 190.397 19.5521 188.751 18.4688C187.126 17.3854 185.314 16.8438 183.314 16.8438C181.293 16.8438 179.481 17.3958 177.876 18.5C176.272 19.6042 175.001 21.0521 174.064 22.8438C173.147 24.6146 172.689 26.5104 172.689 28.5312C172.689 30.5312 173.147 32.4167 174.064 34.1875C174.981 35.9583 176.22 37.3958 177.783 38.5C179.366 39.5833 181.147 40.125 183.126 40.125C185.126 40.125 186.96 39.5729 188.626 38.4688C190.293 37.3438 191.626 35.8854 192.626 34.0938C193.626 32.2812 194.126 30.3646 194.126 28.3438Z"/>
</mask>
<path d="M1.00142 3.1875C1.00142 2.58333 1.20975 2.07292 1.62642 1.65625C2.06392 1.21875 2.58475 1 3.18892 1C3.79309 1 4.31392 1.21875 4.75142 1.65625C5.18892 2.07292 5.39725 2.59375 5.37642 3.21875V27.5938C7.64725 24.9688 10.0014 22.4271 12.4389 19.9688C14.8764 17.4896 17.2827 14.9896 19.6577 12.4688C20.0743 12.0104 20.6056 11.7812 21.2514 11.7812C21.8556 11.7812 22.366 12 22.7827 12.4375C23.2202 12.8542 23.4389 13.3646 23.4389 13.9688C23.4389 14.5729 23.2306 15.0833 22.8139 15.5L12.0952 26.625L23.2514 41.2812C23.5639 41.6771 23.7202 42.125 23.7202 42.625C23.7202 43.2292 23.5014 43.75 23.0639 44.1875C22.6473 44.6042 22.1368 44.8125 21.5327 44.8125C20.8035 44.8125 20.2202 44.5208 19.7827 43.9375L9.03267 29.4062L5.37642 32.9688V42.5312C5.37642 43.1354 5.15767 43.6562 4.72017 44.0938C4.3035 44.5104 3.79309 44.7188 3.18892 44.7188C2.58475 44.7188 2.06392 44.5 1.62642 44.0625C1.18892 43.625 0.980587 43.1042 1.00142 42.5V3.1875Z" fill="#2F2F4F"/>
<path d="M53.1889 45C52.5431 45 52.0118 44.7708 51.5952 44.3125C51.1993 43.8542 51.0014 43.3021 51.0014 42.6562L50.8452 38.9375C50.116 39.8333 49.2514 40.75 48.2514 41.6875C47.2514 42.6042 46.116 43.375 44.8452 44C43.5743 44.6042 42.1368 44.9062 40.5327 44.9062C37.7827 44.9062 35.5639 44.1979 33.8764 42.7812C32.1889 41.3646 30.9598 39.5 30.1889 37.1875C29.4389 34.875 29.0639 32.3958 29.0639 29.75L29.0952 14.5938C29.0952 13.9479 29.3243 13.3958 29.7827 12.9375C30.241 12.4792 30.7931 12.25 31.4389 12.25C32.1056 12.25 32.6577 12.4792 33.0952 12.9375C33.5535 13.3958 33.7827 13.9583 33.7827 14.625L33.7514 29.75C33.7514 31.5833 33.9389 33.3021 34.3139 34.9062C34.6889 36.4896 35.366 37.7708 36.3452 38.75C37.3452 39.7292 38.741 40.2188 40.5327 40.2188C43.9285 40.2188 46.491 39.3125 48.2202 37.5C49.9493 35.6875 50.8139 33.1354 50.8139 29.8438V14.5312C50.8139 13.8854 51.0431 13.3333 51.5014 12.875C51.9598 12.4167 52.5118 12.1875 53.1577 12.1875C53.8243 12.1875 54.3764 12.4167 54.8139 12.875C55.2723 13.3333 55.5014 13.8958 55.5014 14.5625L55.5327 42.625C55.5327 43.2708 55.3035 43.8229 54.8452 44.2812C54.4077 44.7604 53.8556 45 53.1889 45Z" fill="#2F2F4F"/>
<path d="M65.4077 12.0938C66.0535 12.0938 66.5743 12.3229 66.9702 12.7812C67.3868 13.2396 67.5952 13.7917 67.5952 14.4375L67.7514 18.1562C68.5014 17.2396 69.366 16.3229 70.3452 15.4062C71.3452 14.4896 72.4806 13.7292 73.7514 13.125C75.0431 12.5 76.4806 12.1875 78.0639 12.1875C80.8348 12.1875 83.0535 12.8958 84.7202 14.3125C86.4077 15.7292 87.6264 17.5938 88.3764 19.9062C89.1473 22.1979 89.5327 24.6771 89.5327 27.3438L89.5014 42.5C89.5014 43.1458 89.2723 43.6979 88.8139 44.1562C88.3556 44.6146 87.8035 44.8438 87.1577 44.8438C86.5118 44.8438 85.9598 44.6146 85.5014 44.1562C85.0431 43.6771 84.8139 43.1146 84.8139 42.4688L84.8452 27.3438C84.8452 25.4896 84.6577 23.7708 84.2827 22.1875C83.9077 20.6042 83.2306 19.3229 82.2514 18.3438C81.2723 17.3646 79.8764 16.875 78.0639 16.875C74.6681 16.875 72.1056 17.7812 70.3764 19.5938C68.6473 21.4062 67.7827 23.9583 67.7827 27.25V42.5625C67.7827 43.2083 67.5535 43.7604 67.0952 44.2188C66.6368 44.6771 66.0848 44.9062 65.4389 44.9062C64.7931 44.9062 64.241 44.6667 63.7827 44.1875C63.3243 43.7292 63.0952 43.1771 63.0952 42.5312L63.0639 14.4688C63.0639 13.8021 63.2827 13.2396 63.7202 12.7812C64.1785 12.3229 64.741 12.0938 65.4077 12.0938Z" fill="#2F2F4F"/>
<path d="M99.4077 12.0938C100.054 12.0938 100.574 12.3229 100.97 12.7812C101.387 13.2396 101.595 13.7917 101.595 14.4375L101.751 18.1562C102.501 17.2396 103.366 16.3229 104.345 15.4062C105.345 14.4896 106.481 13.7292 107.751 13.125C109.043 12.5 110.481 12.1875 112.064 12.1875C114.835 12.1875 117.054 12.8958 118.72 14.3125C120.408 15.7292 121.626 17.5938 122.376 19.9062C123.147 22.1979 123.533 24.6771 123.533 27.3438L123.501 42.5C123.501 43.1458 123.272 43.6979 122.814 44.1562C122.356 44.6146 121.804 44.8438 121.158 44.8438C120.512 44.8438 119.96 44.6146 119.501 44.1562C119.043 43.6771 118.814 43.1146 118.814 42.4688L118.845 27.3438C118.845 25.4896 118.658 23.7708 118.283 22.1875C117.908 20.6042 117.231 19.3229 116.251 18.3438C115.272 17.3646 113.876 16.875 112.064 16.875C108.668 16.875 106.106 17.7812 104.376 19.5938C102.647 21.4062 101.783 23.9583 101.783 27.25V42.5625C101.783 43.2083 101.554 43.7604 101.095 44.2188C100.637 44.6771 100.085 44.9062 99.4389 44.9062C98.7931 44.9062 98.241 44.6667 97.7827 44.1875C97.3243 43.7292 97.0952 43.1771 97.0952 42.5312L97.0639 14.4688C97.0639 13.8021 97.2827 13.2396 97.7202 12.7812C98.1785 12.3229 98.741 12.0938 99.4077 12.0938Z" fill="#2F2F4F"/>
<path d="M145.626 12.375C147.793 12.375 149.783 12.9167 151.595 14C153.428 15.0833 155.022 16.3542 156.376 17.8125L156.533 14.625C156.533 13.9792 156.741 13.4271 157.158 12.9688C157.574 12.5104 158.106 12.2812 158.751 12.2812C159.397 12.2812 159.949 12.5104 160.408 12.9688C160.866 13.4271 161.095 13.9792 161.095 14.625L161.064 14.6875L160.845 44.1875C160.824 46.4167 160.366 48.5208 159.47 50.5C158.595 52.4792 157.387 54.2188 155.845 55.7188C154.303 57.2396 152.533 58.4271 150.533 59.2812C148.533 60.1354 146.408 60.5625 144.158 60.5625C141.637 60.5625 139.22 60 136.908 58.875C134.595 57.7708 132.647 56.2292 131.064 54.25C130.71 53.8125 130.533 53.3125 130.533 52.75C130.533 52.1042 130.762 51.5521 131.22 51.0938C131.678 50.6354 132.231 50.4062 132.876 50.4062C133.668 50.4062 134.293 50.7188 134.751 51.3438C135.856 52.7396 137.251 53.8438 138.939 54.6562C140.647 55.4688 142.387 55.875 144.158 55.875C146.324 55.875 148.303 55.3333 150.095 54.25C151.908 53.1875 153.356 51.7604 154.439 49.9688C155.543 48.1979 156.116 46.25 156.158 44.125L156.189 39.4375C154.814 40.8333 153.21 42.0938 151.376 43.2188C149.564 44.3229 147.647 44.875 145.626 44.875C143.481 44.875 141.481 44.4375 139.626 43.5625C137.793 42.6667 136.189 41.4583 134.814 39.9375C133.439 38.4167 132.366 36.6875 131.595 34.75C130.824 32.7917 130.439 30.75 130.439 28.625C130.439 26.5 130.814 24.4688 131.564 22.5312C132.335 20.5938 133.408 18.8646 134.783 17.3438C136.158 15.8021 137.762 14.5938 139.595 13.7188C141.449 12.8229 143.46 12.375 145.626 12.375ZM156.095 28.625C156.095 26.6042 155.637 24.7188 154.72 22.9688C153.824 21.2188 152.585 19.8021 151.001 18.7188C149.418 17.6146 147.626 17.0625 145.626 17.0625C143.606 17.0625 141.803 17.6146 140.22 18.7188C138.658 19.8021 137.418 21.2188 136.501 22.9688C135.606 24.7188 135.158 26.6042 135.158 28.625C135.158 30.625 135.616 32.5104 136.533 34.2812C137.449 36.0312 138.689 37.4583 140.251 38.5625C141.835 39.6458 143.626 40.1875 145.626 40.1875C147.626 40.1875 149.408 39.6458 150.97 38.5625C152.553 37.4583 153.803 36.0312 154.72 34.2812C155.637 32.5104 156.095 30.625 156.095 28.625Z" fill="#2F2F4F"/>
<path d="M183.283 12.1562C185.512 12.1562 187.512 12.8021 189.283 14.0938C191.074 15.3854 192.637 16.75 193.97 18.1875L194.251 14.25C194.251 13.6458 194.418 13.1354 194.751 12.7188C195.085 12.2812 195.553 12.0625 196.158 12.0625C196.762 12.0625 197.272 12.2812 197.689 12.7188C198.126 13.1354 198.345 13.6458 198.345 14.25V42.5C198.345 43.1042 198.126 43.625 197.689 44.0625C197.272 44.4792 196.762 44.6875 196.158 44.6875C195.553 44.6875 195.033 44.4792 194.595 44.0625C194.178 43.625 193.97 43.1042 193.97 42.5V38.9375C192.595 40.4375 190.96 41.7917 189.064 43C187.189 44.2083 185.21 44.8125 183.126 44.8125C180.981 44.8125 178.991 44.375 177.158 43.5C175.324 42.6042 173.72 41.3958 172.345 39.875C170.97 38.3542 169.897 36.625 169.126 34.6875C168.376 32.7292 168.001 30.6771 168.001 28.5312C168.001 26.4062 168.376 24.3646 169.126 22.4062C169.897 20.4271 170.97 18.6771 172.345 17.1562C173.741 15.6146 175.366 14.3958 177.22 13.5C179.074 12.6042 181.095 12.1562 183.283 12.1562ZM194.126 28.3438C194.126 26.3229 193.637 24.4479 192.658 22.7188C191.699 20.9688 190.397 19.5521 188.751 18.4688C187.126 17.3854 185.314 16.8438 183.314 16.8438C181.293 16.8438 179.481 17.3958 177.876 18.5C176.272 19.6042 175.001 21.0521 174.064 22.8438C173.147 24.6146 172.689 26.5104 172.689 28.5312C172.689 30.5312 173.147 32.4167 174.064 34.1875C174.981 35.9583 176.22 37.3958 177.783 38.5C179.366 39.5833 181.147 40.125 183.126 40.125C185.126 40.125 186.96 39.5729 188.626 38.4688C190.293 37.3438 191.626 35.8854 192.626 34.0938C193.626 32.2812 194.126 30.3646 194.126 28.3438Z" fill="#2F2F4F"/>
<path d="M1.00142 3.1875C1.00142 2.58333 1.20975 2.07292 1.62642 1.65625C2.06392 1.21875 2.58475 1 3.18892 1C3.79309 1 4.31392 1.21875 4.75142 1.65625C5.18892 2.07292 5.39725 2.59375 5.37642 3.21875V27.5938C7.64725 24.9688 10.0014 22.4271 12.4389 19.9688C14.8764 17.4896 17.2827 14.9896 19.6577 12.4688C20.0743 12.0104 20.6056 11.7812 21.2514 11.7812C21.8556 11.7812 22.366 12 22.7827 12.4375C23.2202 12.8542 23.4389 13.3646 23.4389 13.9688C23.4389 14.5729 23.2306 15.0833 22.8139 15.5L12.0952 26.625L23.2514 41.2812C23.5639 41.6771 23.7202 42.125 23.7202 42.625C23.7202 43.2292 23.5014 43.75 23.0639 44.1875C22.6473 44.6042 22.1368 44.8125 21.5327 44.8125C20.8035 44.8125 20.2202 44.5208 19.7827 43.9375L9.03267 29.4062L5.37642 32.9688V42.5312C5.37642 43.1354 5.15767 43.6562 4.72017 44.0938C4.3035 44.5104 3.79309 44.7188 3.18892 44.7188C2.58475 44.7188 2.06392 44.5 1.62642 44.0625C1.18892 43.625 0.980587 43.1042 1.00142 42.5V3.1875Z" stroke="#2F2F4F" stroke-width="2" mask="url(#path-1-outside-1_1_16)"/>
<path d="M53.1889 45C52.5431 45 52.0118 44.7708 51.5952 44.3125C51.1993 43.8542 51.0014 43.3021 51.0014 42.6562L50.8452 38.9375C50.116 39.8333 49.2514 40.75 48.2514 41.6875C47.2514 42.6042 46.116 43.375 44.8452 44C43.5743 44.6042 42.1368 44.9062 40.5327 44.9062C37.7827 44.9062 35.5639 44.1979 33.8764 42.7812C32.1889 41.3646 30.9598 39.5 30.1889 37.1875C29.4389 34.875 29.0639 32.3958 29.0639 29.75L29.0952 14.5938C29.0952 13.9479 29.3243 13.3958 29.7827 12.9375C30.241 12.4792 30.7931 12.25 31.4389 12.25C32.1056 12.25 32.6577 12.4792 33.0952 12.9375C33.5535 13.3958 33.7827 13.9583 33.7827 14.625L33.7514 29.75C33.7514 31.5833 33.9389 33.3021 34.3139 34.9062C34.6889 36.4896 35.366 37.7708 36.3452 38.75C37.3452 39.7292 38.741 40.2188 40.5327 40.2188C43.9285 40.2188 46.491 39.3125 48.2202 37.5C49.9493 35.6875 50.8139 33.1354 50.8139 29.8438V14.5312C50.8139 13.8854 51.0431 13.3333 51.5014 12.875C51.9598 12.4167 52.5118 12.1875 53.1577 12.1875C53.8243 12.1875 54.3764 12.4167 54.8139 12.875C55.2723 13.3333 55.5014 13.8958 55.5014 14.5625L55.5327 42.625C55.5327 43.2708 55.3035 43.8229 54.8452 44.2812C54.4077 44.7604 53.8556 45 53.1889 45Z" stroke="#2F2F4F" stroke-width="2" mask="url(#path-1-outside-1_1_16)"/>
<path d="M65.4077 12.0938C66.0535 12.0938 66.5743 12.3229 66.9702 12.7812C67.3868 13.2396 67.5952 13.7917 67.5952 14.4375L67.7514 18.1562C68.5014 17.2396 69.366 16.3229 70.3452 15.4062C71.3452 14.4896 72.4806 13.7292 73.7514 13.125C75.0431 12.5 76.4806 12.1875 78.0639 12.1875C80.8348 12.1875 83.0535 12.8958 84.7202 14.3125C86.4077 15.7292 87.6264 17.5938 88.3764 19.9062C89.1473 22.1979 89.5327 24.6771 89.5327 27.3438L89.5014 42.5C89.5014 43.1458 89.2723 43.6979 88.8139 44.1562C88.3556 44.6146 87.8035 44.8438 87.1577 44.8438C86.5118 44.8438 85.9598 44.6146 85.5014 44.1562C85.0431 43.6771 84.8139 43.1146 84.8139 42.4688L84.8452 27.3438C84.8452 25.4896 84.6577 23.7708 84.2827 22.1875C83.9077 20.6042 83.2306 19.3229 82.2514 18.3438C81.2723 17.3646 79.8764 16.875 78.0639 16.875C74.6681 16.875 72.1056 17.7812 70.3764 19.5938C68.6473 21.4062 67.7827 23.9583 67.7827 27.25V42.5625C67.7827 43.2083 67.5535 43.7604 67.0952 44.2188C66.6368 44.6771 66.0848 44.9062 65.4389 44.9062C64.7931 44.9062 64.241 44.6667 63.7827 44.1875C63.3243 43.7292 63.0952 43.1771 63.0952 42.5312L63.0639 14.4688C63.0639 13.8021 63.2827 13.2396 63.7202 12.7812C64.1785 12.3229 64.741 12.0938 65.4077 12.0938Z" stroke="#2F2F4F" stroke-width="2" mask="url(#path-1-outside-1_1_16)"/>
<path d="M99.4077 12.0938C100.054 12.0938 100.574 12.3229 100.97 12.7812C101.387 13.2396 101.595 13.7917 101.595 14.4375L101.751 18.1562C102.501 17.2396 103.366 16.3229 104.345 15.4062C105.345 14.4896 106.481 13.7292 107.751 13.125C109.043 12.5 110.481 12.1875 112.064 12.1875C114.835 12.1875 117.054 12.8958 118.72 14.3125C120.408 15.7292 121.626 17.5938 122.376 19.9062C123.147 22.1979 123.533 24.6771 123.533 27.3438L123.501 42.5C123.501 43.1458 123.272 43.6979 122.814 44.1562C122.356 44.6146 121.804 44.8438 121.158 44.8438C120.512 44.8438 119.96 44.6146 119.501 44.1562C119.043 43.6771 118.814 43.1146 118.814 42.4688L118.845 27.3438C118.845 25.4896 118.658 23.7708 118.283 22.1875C117.908 20.6042 117.231 19.3229 116.251 18.3438C115.272 17.3646 113.876 16.875 112.064 16.875C108.668 16.875 106.106 17.7812 104.376 19.5938C102.647 21.4062 101.783 23.9583 101.783 27.25V42.5625C101.783 43.2083 101.554 43.7604 101.095 44.2188C100.637 44.6771 100.085 44.9062 99.4389 44.9062C98.7931 44.9062 98.241 44.6667 97.7827 44.1875C97.3243 43.7292 97.0952 43.1771 97.0952 42.5312L97.0639 14.4688C97.0639 13.8021 97.2827 13.2396 97.7202 12.7812C98.1785 12.3229 98.741 12.0938 99.4077 12.0938Z" stroke="#2F2F4F" stroke-width="2" mask="url(#path-1-outside-1_1_16)"/>
<path d="M145.626 12.375C147.793 12.375 149.783 12.9167 151.595 14C153.428 15.0833 155.022 16.3542 156.376 17.8125L156.533 14.625C156.533 13.9792 156.741 13.4271 157.158 12.9688C157.574 12.5104 158.106 12.2812 158.751 12.2812C159.397 12.2812 159.949 12.5104 160.408 12.9688C160.866 13.4271 161.095 13.9792 161.095 14.625L161.064 14.6875L160.845 44.1875C160.824 46.4167 160.366 48.5208 159.47 50.5C158.595 52.4792 157.387 54.2188 155.845 55.7188C154.303 57.2396 152.533 58.4271 150.533 59.2812C148.533 60.1354 146.408 60.5625 144.158 60.5625C141.637 60.5625 139.22 60 136.908 58.875C134.595 57.7708 132.647 56.2292 131.064 54.25C130.71 53.8125 130.533 53.3125 130.533 52.75C130.533 52.1042 130.762 51.5521 131.22 51.0938C131.678 50.6354 132.231 50.4062 132.876 50.4062C133.668 50.4062 134.293 50.7188 134.751 51.3438C135.856 52.7396 137.251 53.8438 138.939 54.6562C140.647 55.4688 142.387 55.875 144.158 55.875C146.324 55.875 148.303 55.3333 150.095 54.25C151.908 53.1875 153.356 51.7604 154.439 49.9688C155.543 48.1979 156.116 46.25 156.158 44.125L156.189 39.4375C154.814 40.8333 153.21 42.0938 151.376 43.2188C149.564 44.3229 147.647 44.875 145.626 44.875C143.481 44.875 141.481 44.4375 139.626 43.5625C137.793 42.6667 136.189 41.4583 134.814 39.9375C133.439 38.4167 132.366 36.6875 131.595 34.75C130.824 32.7917 130.439 30.75 130.439 28.625C130.439 26.5 130.814 24.4688 131.564 22.5312C132.335 20.5938 133.408 18.8646 134.783 17.3438C136.158 15.8021 137.762 14.5938 139.595 13.7188C141.449 12.8229 143.46 12.375 145.626 12.375ZM156.095 28.625C156.095 26.6042 155.637 24.7188 154.72 22.9688C153.824 21.2188 152.585 19.8021 151.001 18.7188C149.418 17.6146 147.626 17.0625 145.626 17.0625C143.606 17.0625 141.803 17.6146 140.22 18.7188C138.658 19.8021 137.418 21.2188 136.501 22.9688C135.606 24.7188 135.158 26.6042 135.158 28.625C135.158 30.625 135.616 32.5104 136.533 34.2812C137.449 36.0312 138.689 37.4583 140.251 38.5625C141.835 39.6458 143.626 40.1875 145.626 40.1875C147.626 40.1875 149.408 39.6458 150.97 38.5625C152.553 37.4583 153.803 36.0312 154.72 34.2812C155.637 32.5104 156.095 30.625 156.095 28.625Z" stroke="#2F2F4F" stroke-width="2" mask="url(#path-1-outside-1_1_16)"/>
<path d="M183.283 12.1562C185.512 12.1562 187.512 12.8021 189.283 14.0938C191.074 15.3854 192.637 16.75 193.97 18.1875L194.251 14.25C194.251 13.6458 194.418 13.1354 194.751 12.7188C195.085 12.2812 195.553 12.0625 196.158 12.0625C196.762 12.0625 197.272 12.2812 197.689 12.7188C198.126 13.1354 198.345 13.6458 198.345 14.25V42.5C198.345 43.1042 198.126 43.625 197.689 44.0625C197.272 44.4792 196.762 44.6875 196.158 44.6875C195.553 44.6875 195.033 44.4792 194.595 44.0625C194.178 43.625 193.97 43.1042 193.97 42.5V38.9375C192.595 40.4375 190.96 41.7917 189.064 43C187.189 44.2083 185.21 44.8125 183.126 44.8125C180.981 44.8125 178.991 44.375 177.158 43.5C175.324 42.6042 173.72 41.3958 172.345 39.875C170.97 38.3542 169.897 36.625 169.126 34.6875C168.376 32.7292 168.001 30.6771 168.001 28.5312C168.001 26.4062 168.376 24.3646 169.126 22.4062C169.897 20.4271 170.97 18.6771 172.345 17.1562C173.741 15.6146 175.366 14.3958 177.22 13.5C179.074 12.6042 181.095 12.1562 183.283 12.1562ZM194.126 28.3438C194.126 26.3229 193.637 24.4479 192.658 22.7188C191.699 20.9688 190.397 19.5521 188.751 18.4688C187.126 17.3854 185.314 16.8438 183.314 16.8438C181.293 16.8438 179.481 17.3958 177.876 18.5C176.272 19.6042 175.001 21.0521 174.064 22.8438C173.147 24.6146 172.689 26.5104 172.689 28.5312C172.689 30.5312 173.147 32.4167 174.064 34.1875C174.981 35.9583 176.22 37.3958 177.783 38.5C179.366 39.5833 181.147 40.125 183.126 40.125C185.126 40.125 186.96 39.5729 188.626 38.4688C190.293 37.3438 191.626 35.8854 192.626 34.0938C193.626 32.2812 194.126 30.3646 194.126 28.3438Z" stroke="#2F2F4F" stroke-width="2" mask="url(#path-1-outside-1_1_16)"/>
</svg>
