<svg width="236" height="138" viewBox="0 0 236 138" fill="none" xmlns="http://www.w3.org/2000/svg">
<rect width="236" height="138" fill="#2F2F4F"/>
<rect x="112.161" y="35" width="21" height="5.03344" transform="rotate(-90 112.161 35)" fill="#FF1100"/>
<rect x="120.214" y="35" width="21" height="5.03344" transform="rotate(-90 120.214 35)" fill="#FF1100"/>
<rect x="128.268" y="35" width="21" height="5.03344" transform="rotate(-90 128.268 35)" fill="#FF1100"/>
<rect x="104.107" y="60" width="21" height="5.03344" transform="rotate(-90 104.107 60)" fill="#215E21"/>
<rect x="96.0535" y="60" width="21" height="5.03344" transform="rotate(-90 96.0535 60)" fill="#215E21"/>
<rect x="88" y="60" width="21" height="5.03344" transform="rotate(-90 88 60)" fill="#215E21"/>
<rect x="88" y="14" width="21.1405" height="5" fill="#A0030E"/>
<rect x="88" y="22" width="21.1405" height="5" fill="#A0030E"/>
<rect x="88" y="30" width="21.1405" height="5" fill="#A0030E"/>
<rect x="112.161" y="39" width="21.1405" height="5" fill="#C2C264"/>
<rect x="112.161" y="47" width="21.1405" height="5" fill="#C2C264"/>
<rect x="112.161" y="55" width="21.1405" height="5" fill="#C2C264"/>
<mask id="path-14-outside-1_1_24" maskUnits="userSpaceOnUse" x="17" y="59" width="200" height="62" fill="black">
<rect fill="white" x="17" y="59" width="200" height="62"/>
<path d="M18.0014 62.1875C18.0014 61.5833 18.2098 61.0729 18.6264 60.6562C19.0639 60.2188 19.5848 60 20.1889 60C20.7931 60 21.3139 60.2188 21.7514 60.6562C22.1889 61.0729 22.3973 61.5938 22.3764 62.2188V86.5938C24.6473 83.9688 27.0014 81.4271 29.4389 78.9688C31.8764 76.4896 34.2827 73.9896 36.6577 71.4688C37.0743 71.0104 37.6056 70.7812 38.2514 70.7812C38.8556 70.7812 39.366 71 39.7827 71.4375C40.2202 71.8542 40.4389 72.3646 40.4389 72.9688C40.4389 73.5729 40.2306 74.0833 39.8139 74.5L29.0952 85.625L40.2514 100.281C40.5639 100.677 40.7202 101.125 40.7202 101.625C40.7202 102.229 40.5014 102.75 40.0639 103.188C39.6473 103.604 39.1368 103.812 38.5327 103.812C37.8035 103.812 37.2202 103.521 36.7827 102.938L26.0327 88.4062L22.3764 91.9688V101.531C22.3764 102.135 22.1577 102.656 21.7202 103.094C21.3035 103.51 20.7931 103.719 20.1889 103.719C19.5848 103.719 19.0639 103.5 18.6264 103.062C18.1889 102.625 17.9806 102.104 18.0014 101.5V62.1875Z"/>
<path d="M70.1889 104C69.5431 104 69.0118 103.771 68.5952 103.312C68.1993 102.854 68.0014 102.302 68.0014 101.656L67.8452 97.9375C67.116 98.8333 66.2514 99.75 65.2514 100.688C64.2514 101.604 63.116 102.375 61.8452 103C60.5743 103.604 59.1368 103.906 57.5327 103.906C54.7827 103.906 52.5639 103.198 50.8764 101.781C49.1889 100.365 47.9598 98.5 47.1889 96.1875C46.4389 93.875 46.0639 91.3958 46.0639 88.75L46.0952 73.5938C46.0952 72.9479 46.3243 72.3958 46.7827 71.9375C47.241 71.4792 47.7931 71.25 48.4389 71.25C49.1056 71.25 49.6577 71.4792 50.0952 71.9375C50.5535 72.3958 50.7827 72.9583 50.7827 73.625L50.7514 88.75C50.7514 90.5833 50.9389 92.3021 51.3139 93.9062C51.6889 95.4896 52.366 96.7708 53.3452 97.75C54.3452 98.7292 55.741 99.2188 57.5327 99.2188C60.9285 99.2188 63.491 98.3125 65.2202 96.5C66.9493 94.6875 67.8139 92.1354 67.8139 88.8438V73.5312C67.8139 72.8854 68.0431 72.3333 68.5014 71.875C68.9598 71.4167 69.5118 71.1875 70.1577 71.1875C70.8243 71.1875 71.3764 71.4167 71.8139 71.875C72.2723 72.3333 72.5014 72.8958 72.5014 73.5625L72.5327 101.625C72.5327 102.271 72.3035 102.823 71.8452 103.281C71.4077 103.76 70.8556 104 70.1889 104Z"/>
<path d="M82.4077 71.0938C83.0535 71.0938 83.5743 71.3229 83.9702 71.7812C84.3868 72.2396 84.5952 72.7917 84.5952 73.4375L84.7514 77.1562C85.5014 76.2396 86.366 75.3229 87.3452 74.4062C88.3452 73.4896 89.4806 72.7292 90.7514 72.125C92.0431 71.5 93.4806 71.1875 95.0639 71.1875C97.8348 71.1875 100.054 71.8958 101.72 73.3125C103.408 74.7292 104.626 76.5938 105.376 78.9062C106.147 81.1979 106.533 83.6771 106.533 86.3438L106.501 101.5C106.501 102.146 106.272 102.698 105.814 103.156C105.356 103.615 104.804 103.844 104.158 103.844C103.512 103.844 102.96 103.615 102.501 103.156C102.043 102.677 101.814 102.115 101.814 101.469L101.845 86.3438C101.845 84.4896 101.658 82.7708 101.283 81.1875C100.908 79.6042 100.231 78.3229 99.2514 77.3438C98.2723 76.3646 96.8764 75.875 95.0639 75.875C91.6681 75.875 89.1056 76.7812 87.3764 78.5938C85.6473 80.4062 84.7827 82.9583 84.7827 86.25V101.562C84.7827 102.208 84.5535 102.76 84.0952 103.219C83.6368 103.677 83.0848 103.906 82.4389 103.906C81.7931 103.906 81.241 103.667 80.7827 103.188C80.3243 102.729 80.0952 102.177 80.0952 101.531L80.0639 73.4688C80.0639 72.8021 80.2827 72.2396 80.7202 71.7812C81.1785 71.3229 81.741 71.0938 82.4077 71.0938Z"/>
<path d="M116.408 71.0938C117.054 71.0938 117.574 71.3229 117.97 71.7812C118.387 72.2396 118.595 72.7917 118.595 73.4375L118.751 77.1562C119.501 76.2396 120.366 75.3229 121.345 74.4062C122.345 73.4896 123.481 72.7292 124.751 72.125C126.043 71.5 127.481 71.1875 129.064 71.1875C131.835 71.1875 134.054 71.8958 135.72 73.3125C137.408 74.7292 138.626 76.5938 139.376 78.9062C140.147 81.1979 140.533 83.6771 140.533 86.3438L140.501 101.5C140.501 102.146 140.272 102.698 139.814 103.156C139.356 103.615 138.804 103.844 138.158 103.844C137.512 103.844 136.96 103.615 136.501 103.156C136.043 102.677 135.814 102.115 135.814 101.469L135.845 86.3438C135.845 84.4896 135.658 82.7708 135.283 81.1875C134.908 79.6042 134.231 78.3229 133.251 77.3438C132.272 76.3646 130.876 75.875 129.064 75.875C125.668 75.875 123.106 76.7812 121.376 78.5938C119.647 80.4062 118.783 82.9583 118.783 86.25V101.562C118.783 102.208 118.554 102.76 118.095 103.219C117.637 103.677 117.085 103.906 116.439 103.906C115.793 103.906 115.241 103.667 114.783 103.188C114.324 102.729 114.095 102.177 114.095 101.531L114.064 73.4688C114.064 72.8021 114.283 72.2396 114.72 71.7812C115.179 71.3229 115.741 71.0938 116.408 71.0938Z"/>
<path d="M162.626 71.375C164.793 71.375 166.783 71.9167 168.595 73C170.428 74.0833 172.022 75.3542 173.376 76.8125L173.533 73.625C173.533 72.9792 173.741 72.4271 174.158 71.9688C174.574 71.5104 175.106 71.2812 175.751 71.2812C176.397 71.2812 176.949 71.5104 177.408 71.9688C177.866 72.4271 178.095 72.9792 178.095 73.625L178.064 73.6875L177.845 103.188C177.824 105.417 177.366 107.521 176.47 109.5C175.595 111.479 174.387 113.219 172.845 114.719C171.303 116.24 169.533 117.427 167.533 118.281C165.533 119.135 163.408 119.562 161.158 119.562C158.637 119.562 156.22 119 153.908 117.875C151.595 116.771 149.647 115.229 148.064 113.25C147.71 112.812 147.533 112.312 147.533 111.75C147.533 111.104 147.762 110.552 148.22 110.094C148.678 109.635 149.231 109.406 149.876 109.406C150.668 109.406 151.293 109.719 151.751 110.344C152.856 111.74 154.251 112.844 155.939 113.656C157.647 114.469 159.387 114.875 161.158 114.875C163.324 114.875 165.303 114.333 167.095 113.25C168.908 112.188 170.356 110.76 171.439 108.969C172.543 107.198 173.116 105.25 173.158 103.125L173.189 98.4375C171.814 99.8333 170.21 101.094 168.376 102.219C166.564 103.323 164.647 103.875 162.626 103.875C160.481 103.875 158.481 103.438 156.626 102.562C154.793 101.667 153.189 100.458 151.814 98.9375C150.439 97.4167 149.366 95.6875 148.595 93.75C147.824 91.7917 147.439 89.75 147.439 87.625C147.439 85.5 147.814 83.4688 148.564 81.5312C149.335 79.5938 150.408 77.8646 151.783 76.3438C153.158 74.8021 154.762 73.5938 156.595 72.7188C158.449 71.8229 160.46 71.375 162.626 71.375ZM173.095 87.625C173.095 85.6042 172.637 83.7188 171.72 81.9688C170.824 80.2188 169.585 78.8021 168.001 77.7188C166.418 76.6146 164.626 76.0625 162.626 76.0625C160.606 76.0625 158.803 76.6146 157.22 77.7188C155.658 78.8021 154.418 80.2188 153.501 81.9688C152.606 83.7188 152.158 85.6042 152.158 87.625C152.158 89.625 152.616 91.5104 153.533 93.2812C154.449 95.0312 155.689 96.4583 157.251 97.5625C158.835 98.6458 160.626 99.1875 162.626 99.1875C164.626 99.1875 166.408 98.6458 167.97 97.5625C169.553 96.4583 170.803 95.0312 171.72 93.2812C172.637 91.5104 173.095 89.625 173.095 87.625Z"/>
<path d="M200.283 71.1562C202.512 71.1562 204.512 71.8021 206.283 73.0938C208.074 74.3854 209.637 75.75 210.97 77.1875L211.251 73.25C211.251 72.6458 211.418 72.1354 211.751 71.7188C212.085 71.2812 212.553 71.0625 213.158 71.0625C213.762 71.0625 214.272 71.2812 214.689 71.7188C215.126 72.1354 215.345 72.6458 215.345 73.25V101.5C215.345 102.104 215.126 102.625 214.689 103.062C214.272 103.479 213.762 103.688 213.158 103.688C212.553 103.688 212.033 103.479 211.595 103.062C211.178 102.625 210.97 102.104 210.97 101.5V97.9375C209.595 99.4375 207.96 100.792 206.064 102C204.189 103.208 202.21 103.812 200.126 103.812C197.981 103.812 195.991 103.375 194.158 102.5C192.324 101.604 190.72 100.396 189.345 98.875C187.97 97.3542 186.897 95.625 186.126 93.6875C185.376 91.7292 185.001 89.6771 185.001 87.5312C185.001 85.4062 185.376 83.3646 186.126 81.4062C186.897 79.4271 187.97 77.6771 189.345 76.1562C190.741 74.6146 192.366 73.3958 194.22 72.5C196.074 71.6042 198.095 71.1562 200.283 71.1562ZM211.126 87.3438C211.126 85.3229 210.637 83.4479 209.658 81.7188C208.699 79.9688 207.397 78.5521 205.751 77.4688C204.126 76.3854 202.314 75.8438 200.314 75.8438C198.293 75.8438 196.481 76.3958 194.876 77.5C193.272 78.6042 192.001 80.0521 191.064 81.8438C190.147 83.6146 189.689 85.5104 189.689 87.5312C189.689 89.5312 190.147 91.4167 191.064 93.1875C191.981 94.9583 193.22 96.3958 194.783 97.5C196.366 98.5833 198.147 99.125 200.126 99.125C202.126 99.125 203.96 98.5729 205.626 97.4688C207.293 96.3438 208.626 94.8854 209.626 93.0938C210.626 91.2812 211.126 89.3646 211.126 87.3438Z"/>
</mask>
<path d="M18.0014 62.1875C18.0014 61.5833 18.2098 61.0729 18.6264 60.6562C19.0639 60.2188 19.5848 60 20.1889 60C20.7931 60 21.3139 60.2188 21.7514 60.6562C22.1889 61.0729 22.3973 61.5938 22.3764 62.2188V86.5938C24.6473 83.9688 27.0014 81.4271 29.4389 78.9688C31.8764 76.4896 34.2827 73.9896 36.6577 71.4688C37.0743 71.0104 37.6056 70.7812 38.2514 70.7812C38.8556 70.7812 39.366 71 39.7827 71.4375C40.2202 71.8542 40.4389 72.3646 40.4389 72.9688C40.4389 73.5729 40.2306 74.0833 39.8139 74.5L29.0952 85.625L40.2514 100.281C40.5639 100.677 40.7202 101.125 40.7202 101.625C40.7202 102.229 40.5014 102.75 40.0639 103.188C39.6473 103.604 39.1368 103.812 38.5327 103.812C37.8035 103.812 37.2202 103.521 36.7827 102.938L26.0327 88.4062L22.3764 91.9688V101.531C22.3764 102.135 22.1577 102.656 21.7202 103.094C21.3035 103.51 20.7931 103.719 20.1889 103.719C19.5848 103.719 19.0639 103.5 18.6264 103.062C18.1889 102.625 17.9806 102.104 18.0014 101.5V62.1875Z" fill="#F6F6FB"/>
<path d="M70.1889 104C69.5431 104 69.0118 103.771 68.5952 103.312C68.1993 102.854 68.0014 102.302 68.0014 101.656L67.8452 97.9375C67.116 98.8333 66.2514 99.75 65.2514 100.688C64.2514 101.604 63.116 102.375 61.8452 103C60.5743 103.604 59.1368 103.906 57.5327 103.906C54.7827 103.906 52.5639 103.198 50.8764 101.781C49.1889 100.365 47.9598 98.5 47.1889 96.1875C46.4389 93.875 46.0639 91.3958 46.0639 88.75L46.0952 73.5938C46.0952 72.9479 46.3243 72.3958 46.7827 71.9375C47.241 71.4792 47.7931 71.25 48.4389 71.25C49.1056 71.25 49.6577 71.4792 50.0952 71.9375C50.5535 72.3958 50.7827 72.9583 50.7827 73.625L50.7514 88.75C50.7514 90.5833 50.9389 92.3021 51.3139 93.9062C51.6889 95.4896 52.366 96.7708 53.3452 97.75C54.3452 98.7292 55.741 99.2188 57.5327 99.2188C60.9285 99.2188 63.491 98.3125 65.2202 96.5C66.9493 94.6875 67.8139 92.1354 67.8139 88.8438V73.5312C67.8139 72.8854 68.0431 72.3333 68.5014 71.875C68.9598 71.4167 69.5118 71.1875 70.1577 71.1875C70.8243 71.1875 71.3764 71.4167 71.8139 71.875C72.2723 72.3333 72.5014 72.8958 72.5014 73.5625L72.5327 101.625C72.5327 102.271 72.3035 102.823 71.8452 103.281C71.4077 103.76 70.8556 104 70.1889 104Z" fill="#F6F6FB"/>
<path d="M82.4077 71.0938C83.0535 71.0938 83.5743 71.3229 83.9702 71.7812C84.3868 72.2396 84.5952 72.7917 84.5952 73.4375L84.7514 77.1562C85.5014 76.2396 86.366 75.3229 87.3452 74.4062C88.3452 73.4896 89.4806 72.7292 90.7514 72.125C92.0431 71.5 93.4806 71.1875 95.0639 71.1875C97.8348 71.1875 100.054 71.8958 101.72 73.3125C103.408 74.7292 104.626 76.5938 105.376 78.9062C106.147 81.1979 106.533 83.6771 106.533 86.3438L106.501 101.5C106.501 102.146 106.272 102.698 105.814 103.156C105.356 103.615 104.804 103.844 104.158 103.844C103.512 103.844 102.96 103.615 102.501 103.156C102.043 102.677 101.814 102.115 101.814 101.469L101.845 86.3438C101.845 84.4896 101.658 82.7708 101.283 81.1875C100.908 79.6042 100.231 78.3229 99.2514 77.3438C98.2723 76.3646 96.8764 75.875 95.0639 75.875C91.6681 75.875 89.1056 76.7812 87.3764 78.5938C85.6473 80.4062 84.7827 82.9583 84.7827 86.25V101.562C84.7827 102.208 84.5535 102.76 84.0952 103.219C83.6368 103.677 83.0848 103.906 82.4389 103.906C81.7931 103.906 81.241 103.667 80.7827 103.188C80.3243 102.729 80.0952 102.177 80.0952 101.531L80.0639 73.4688C80.0639 72.8021 80.2827 72.2396 80.7202 71.7812C81.1785 71.3229 81.741 71.0938 82.4077 71.0938Z" fill="#F6F6FB"/>
<path d="M116.408 71.0938C117.054 71.0938 117.574 71.3229 117.97 71.7812C118.387 72.2396 118.595 72.7917 118.595 73.4375L118.751 77.1562C119.501 76.2396 120.366 75.3229 121.345 74.4062C122.345 73.4896 123.481 72.7292 124.751 72.125C126.043 71.5 127.481 71.1875 129.064 71.1875C131.835 71.1875 134.054 71.8958 135.72 73.3125C137.408 74.7292 138.626 76.5938 139.376 78.9062C140.147 81.1979 140.533 83.6771 140.533 86.3438L140.501 101.5C140.501 102.146 140.272 102.698 139.814 103.156C139.356 103.615 138.804 103.844 138.158 103.844C137.512 103.844 136.96 103.615 136.501 103.156C136.043 102.677 135.814 102.115 135.814 101.469L135.845 86.3438C135.845 84.4896 135.658 82.7708 135.283 81.1875C134.908 79.6042 134.231 78.3229 133.251 77.3438C132.272 76.3646 130.876 75.875 129.064 75.875C125.668 75.875 123.106 76.7812 121.376 78.5938C119.647 80.4062 118.783 82.9583 118.783 86.25V101.562C118.783 102.208 118.554 102.76 118.095 103.219C117.637 103.677 117.085 103.906 116.439 103.906C115.793 103.906 115.241 103.667 114.783 103.188C114.324 102.729 114.095 102.177 114.095 101.531L114.064 73.4688C114.064 72.8021 114.283 72.2396 114.72 71.7812C115.179 71.3229 115.741 71.0938 116.408 71.0938Z" fill="#F6F6FB"/>
<path d="M162.626 71.375C164.793 71.375 166.783 71.9167 168.595 73C170.428 74.0833 172.022 75.3542 173.376 76.8125L173.533 73.625C173.533 72.9792 173.741 72.4271 174.158 71.9688C174.574 71.5104 175.106 71.2812 175.751 71.2812C176.397 71.2812 176.949 71.5104 177.408 71.9688C177.866 72.4271 178.095 72.9792 178.095 73.625L178.064 73.6875L177.845 103.188C177.824 105.417 177.366 107.521 176.47 109.5C175.595 111.479 174.387 113.219 172.845 114.719C171.303 116.24 169.533 117.427 167.533 118.281C165.533 119.135 163.408 119.562 161.158 119.562C158.637 119.562 156.22 119 153.908 117.875C151.595 116.771 149.647 115.229 148.064 113.25C147.71 112.812 147.533 112.312 147.533 111.75C147.533 111.104 147.762 110.552 148.22 110.094C148.678 109.635 149.231 109.406 149.876 109.406C150.668 109.406 151.293 109.719 151.751 110.344C152.856 111.74 154.251 112.844 155.939 113.656C157.647 114.469 159.387 114.875 161.158 114.875C163.324 114.875 165.303 114.333 167.095 113.25C168.908 112.188 170.356 110.76 171.439 108.969C172.543 107.198 173.116 105.25 173.158 103.125L173.189 98.4375C171.814 99.8333 170.21 101.094 168.376 102.219C166.564 103.323 164.647 103.875 162.626 103.875C160.481 103.875 158.481 103.438 156.626 102.562C154.793 101.667 153.189 100.458 151.814 98.9375C150.439 97.4167 149.366 95.6875 148.595 93.75C147.824 91.7917 147.439 89.75 147.439 87.625C147.439 85.5 147.814 83.4688 148.564 81.5312C149.335 79.5938 150.408 77.8646 151.783 76.3438C153.158 74.8021 154.762 73.5938 156.595 72.7188C158.449 71.8229 160.46 71.375 162.626 71.375ZM173.095 87.625C173.095 85.6042 172.637 83.7188 171.72 81.9688C170.824 80.2188 169.585 78.8021 168.001 77.7188C166.418 76.6146 164.626 76.0625 162.626 76.0625C160.606 76.0625 158.803 76.6146 157.22 77.7188C155.658 78.8021 154.418 80.2188 153.501 81.9688C152.606 83.7188 152.158 85.6042 152.158 87.625C152.158 89.625 152.616 91.5104 153.533 93.2812C154.449 95.0312 155.689 96.4583 157.251 97.5625C158.835 98.6458 160.626 99.1875 162.626 99.1875C164.626 99.1875 166.408 98.6458 167.97 97.5625C169.553 96.4583 170.803 95.0312 171.72 93.2812C172.637 91.5104 173.095 89.625 173.095 87.625Z" fill="#F6F6FB"/>
<path d="M200.283 71.1562C202.512 71.1562 204.512 71.8021 206.283 73.0938C208.074 74.3854 209.637 75.75 210.97 77.1875L211.251 73.25C211.251 72.6458 211.418 72.1354 211.751 71.7188C212.085 71.2812 212.553 71.0625 213.158 71.0625C213.762 71.0625 214.272 71.2812 214.689 71.7188C215.126 72.1354 215.345 72.6458 215.345 73.25V101.5C215.345 102.104 215.126 102.625 214.689 103.062C214.272 103.479 213.762 103.688 213.158 103.688C212.553 103.688 212.033 103.479 211.595 103.062C211.178 102.625 210.97 102.104 210.97 101.5V97.9375C209.595 99.4375 207.96 100.792 206.064 102C204.189 103.208 202.21 103.812 200.126 103.812C197.981 103.812 195.991 103.375 194.158 102.5C192.324 101.604 190.72 100.396 189.345 98.875C187.97 97.3542 186.897 95.625 186.126 93.6875C185.376 91.7292 185.001 89.6771 185.001 87.5312C185.001 85.4062 185.376 83.3646 186.126 81.4062C186.897 79.4271 187.97 77.6771 189.345 76.1562C190.741 74.6146 192.366 73.3958 194.22 72.5C196.074 71.6042 198.095 71.1562 200.283 71.1562ZM211.126 87.3438C211.126 85.3229 210.637 83.4479 209.658 81.7188C208.699 79.9688 207.397 78.5521 205.751 77.4688C204.126 76.3854 202.314 75.8438 200.314 75.8438C198.293 75.8438 196.481 76.3958 194.876 77.5C193.272 78.6042 192.001 80.0521 191.064 81.8438C190.147 83.6146 189.689 85.5104 189.689 87.5312C189.689 89.5312 190.147 91.4167 191.064 93.1875C191.981 94.9583 193.22 96.3958 194.783 97.5C196.366 98.5833 198.147 99.125 200.126 99.125C202.126 99.125 203.96 98.5729 205.626 97.4688C207.293 96.3438 208.626 94.8854 209.626 93.0938C210.626 91.2812 211.126 89.3646 211.126 87.3438Z" fill="#F6F6FB"/>
<path d="M18.0014 62.1875C18.0014 61.5833 18.2098 61.0729 18.6264 60.6562C19.0639 60.2188 19.5848 60 20.1889 60C20.7931 60 21.3139 60.2188 21.7514 60.6562C22.1889 61.0729 22.3973 61.5938 22.3764 62.2188V86.5938C24.6473 83.9688 27.0014 81.4271 29.4389 78.9688C31.8764 76.4896 34.2827 73.9896 36.6577 71.4688C37.0743 71.0104 37.6056 70.7812 38.2514 70.7812C38.8556 70.7812 39.366 71 39.7827 71.4375C40.2202 71.8542 40.4389 72.3646 40.4389 72.9688C40.4389 73.5729 40.2306 74.0833 39.8139 74.5L29.0952 85.625L40.2514 100.281C40.5639 100.677 40.7202 101.125 40.7202 101.625C40.7202 102.229 40.5014 102.75 40.0639 103.188C39.6473 103.604 39.1368 103.812 38.5327 103.812C37.8035 103.812 37.2202 103.521 36.7827 102.938L26.0327 88.4062L22.3764 91.9688V101.531C22.3764 102.135 22.1577 102.656 21.7202 103.094C21.3035 103.51 20.7931 103.719 20.1889 103.719C19.5848 103.719 19.0639 103.5 18.6264 103.062C18.1889 102.625 17.9806 102.104 18.0014 101.5V62.1875Z" stroke="#2F2F4F" stroke-width="2" mask="url(#path-14-outside-1_1_24)"/>
<path d="M70.1889 104C69.5431 104 69.0118 103.771 68.5952 103.312C68.1993 102.854 68.0014 102.302 68.0014 101.656L67.8452 97.9375C67.116 98.8333 66.2514 99.75 65.2514 100.688C64.2514 101.604 63.116 102.375 61.8452 103C60.5743 103.604 59.1368 103.906 57.5327 103.906C54.7827 103.906 52.5639 103.198 50.8764 101.781C49.1889 100.365 47.9598 98.5 47.1889 96.1875C46.4389 93.875 46.0639 91.3958 46.0639 88.75L46.0952 73.5938C46.0952 72.9479 46.3243 72.3958 46.7827 71.9375C47.241 71.4792 47.7931 71.25 48.4389 71.25C49.1056 71.25 49.6577 71.4792 50.0952 71.9375C50.5535 72.3958 50.7827 72.9583 50.7827 73.625L50.7514 88.75C50.7514 90.5833 50.9389 92.3021 51.3139 93.9062C51.6889 95.4896 52.366 96.7708 53.3452 97.75C54.3452 98.7292 55.741 99.2188 57.5327 99.2188C60.9285 99.2188 63.491 98.3125 65.2202 96.5C66.9493 94.6875 67.8139 92.1354 67.8139 88.8438V73.5312C67.8139 72.8854 68.0431 72.3333 68.5014 71.875C68.9598 71.4167 69.5118 71.1875 70.1577 71.1875C70.8243 71.1875 71.3764 71.4167 71.8139 71.875C72.2723 72.3333 72.5014 72.8958 72.5014 73.5625L72.5327 101.625C72.5327 102.271 72.3035 102.823 71.8452 103.281C71.4077 103.76 70.8556 104 70.1889 104Z" stroke="#2F2F4F" stroke-width="2" mask="url(#path-14-outside-1_1_24)"/>
<path d="M82.4077 71.0938C83.0535 71.0938 83.5743 71.3229 83.9702 71.7812C84.3868 72.2396 84.5952 72.7917 84.5952 73.4375L84.7514 77.1562C85.5014 76.2396 86.366 75.3229 87.3452 74.4062C88.3452 73.4896 89.4806 72.7292 90.7514 72.125C92.0431 71.5 93.4806 71.1875 95.0639 71.1875C97.8348 71.1875 100.054 71.8958 101.72 73.3125C103.408 74.7292 104.626 76.5938 105.376 78.9062C106.147 81.1979 106.533 83.6771 106.533 86.3438L106.501 101.5C106.501 102.146 106.272 102.698 105.814 103.156C105.356 103.615 104.804 103.844 104.158 103.844C103.512 103.844 102.96 103.615 102.501 103.156C102.043 102.677 101.814 102.115 101.814 101.469L101.845 86.3438C101.845 84.4896 101.658 82.7708 101.283 81.1875C100.908 79.6042 100.231 78.3229 99.2514 77.3438C98.2723 76.3646 96.8764 75.875 95.0639 75.875C91.6681 75.875 89.1056 76.7812 87.3764 78.5938C85.6473 80.4062 84.7827 82.9583 84.7827 86.25V101.562C84.7827 102.208 84.5535 102.76 84.0952 103.219C83.6368 103.677 83.0848 103.906 82.4389 103.906C81.7931 103.906 81.241 103.667 80.7827 103.188C80.3243 102.729 80.0952 102.177 80.0952 101.531L80.0639 73.4688C80.0639 72.8021 80.2827 72.2396 80.7202 71.7812C81.1785 71.3229 81.741 71.0938 82.4077 71.0938Z" stroke="#2F2F4F" stroke-width="2" mask="url(#path-14-outside-1_1_24)"/>
<path d="M116.408 71.0938C117.054 71.0938 117.574 71.3229 117.97 71.7812C118.387 72.2396 118.595 72.7917 118.595 73.4375L118.751 77.1562C119.501 76.2396 120.366 75.3229 121.345 74.4062C122.345 73.4896 123.481 72.7292 124.751 72.125C126.043 71.5 127.481 71.1875 129.064 71.1875C131.835 71.1875 134.054 71.8958 135.72 73.3125C137.408 74.7292 138.626 76.5938 139.376 78.9062C140.147 81.1979 140.533 83.6771 140.533 86.3438L140.501 101.5C140.501 102.146 140.272 102.698 139.814 103.156C139.356 103.615 138.804 103.844 138.158 103.844C137.512 103.844 136.96 103.615 136.501 103.156C136.043 102.677 135.814 102.115 135.814 101.469L135.845 86.3438C135.845 84.4896 135.658 82.7708 135.283 81.1875C134.908 79.6042 134.231 78.3229 133.251 77.3438C132.272 76.3646 130.876 75.875 129.064 75.875C125.668 75.875 123.106 76.7812 121.376 78.5938C119.647 80.4062 118.783 82.9583 118.783 86.25V101.562C118.783 102.208 118.554 102.76 118.095 103.219C117.637 103.677 117.085 103.906 116.439 103.906C115.793 103.906 115.241 103.667 114.783 103.188C114.324 102.729 114.095 102.177 114.095 101.531L114.064 73.4688C114.064 72.8021 114.283 72.2396 114.72 71.7812C115.179 71.3229 115.741 71.0938 116.408 71.0938Z" stroke="#2F2F4F" stroke-width="2" mask="url(#path-14-outside-1_1_24)"/>
<path d="M162.626 71.375C164.793 71.375 166.783 71.9167 168.595 73C170.428 74.0833 172.022 75.3542 173.376 76.8125L173.533 73.625C173.533 72.9792 173.741 72.4271 174.158 71.9688C174.574 71.5104 175.106 71.2812 175.751 71.2812C176.397 71.2812 176.949 71.5104 177.408 71.9688C177.866 72.4271 178.095 72.9792 178.095 73.625L178.064 73.6875L177.845 103.188C177.824 105.417 177.366 107.521 176.47 109.5C175.595 111.479 174.387 113.219 172.845 114.719C171.303 116.24 169.533 117.427 167.533 118.281C165.533 119.135 163.408 119.562 161.158 119.562C158.637 119.562 156.22 119 153.908 117.875C151.595 116.771 149.647 115.229 148.064 113.25C147.71 112.812 147.533 112.312 147.533 111.75C147.533 111.104 147.762 110.552 148.22 110.094C148.678 109.635 149.231 109.406 149.876 109.406C150.668 109.406 151.293 109.719 151.751 110.344C152.856 111.74 154.251 112.844 155.939 113.656C157.647 114.469 159.387 114.875 161.158 114.875C163.324 114.875 165.303 114.333 167.095 113.25C168.908 112.188 170.356 110.76 171.439 108.969C172.543 107.198 173.116 105.25 173.158 103.125L173.189 98.4375C171.814 99.8333 170.21 101.094 168.376 102.219C166.564 103.323 164.647 103.875 162.626 103.875C160.481 103.875 158.481 103.438 156.626 102.562C154.793 101.667 153.189 100.458 151.814 98.9375C150.439 97.4167 149.366 95.6875 148.595 93.75C147.824 91.7917 147.439 89.75 147.439 87.625C147.439 85.5 147.814 83.4688 148.564 81.5312C149.335 79.5938 150.408 77.8646 151.783 76.3438C153.158 74.8021 154.762 73.5938 156.595 72.7188C158.449 71.8229 160.46 71.375 162.626 71.375ZM173.095 87.625C173.095 85.6042 172.637 83.7188 171.72 81.9688C170.824 80.2188 169.585 78.8021 168.001 77.7188C166.418 76.6146 164.626 76.0625 162.626 76.0625C160.606 76.0625 158.803 76.6146 157.22 77.7188C155.658 78.8021 154.418 80.2188 153.501 81.9688C152.606 83.7188 152.158 85.6042 152.158 87.625C152.158 89.625 152.616 91.5104 153.533 93.2812C154.449 95.0312 155.689 96.4583 157.251 97.5625C158.835 98.6458 160.626 99.1875 162.626 99.1875C164.626 99.1875 166.408 98.6458 167.97 97.5625C169.553 96.4583 170.803 95.0312 171.72 93.2812C172.637 91.5104 173.095 89.625 173.095 87.625Z" stroke="#2F2F4F" stroke-width="2" mask="url(#path-14-outside-1_1_24)"/>
<path d="M200.283 71.1562C202.512 71.1562 204.512 71.8021 206.283 73.0938C208.074 74.3854 209.637 75.75 210.97 77.1875L211.251 73.25C211.251 72.6458 211.418 72.1354 211.751 71.7188C212.085 71.2812 212.553 71.0625 213.158 71.0625C213.762 71.0625 214.272 71.2812 214.689 71.7188C215.126 72.1354 215.345 72.6458 215.345 73.25V101.5C215.345 102.104 215.126 102.625 214.689 103.062C214.272 103.479 213.762 103.688 213.158 103.688C212.553 103.688 212.033 103.479 211.595 103.062C211.178 102.625 210.97 102.104 210.97 101.5V97.9375C209.595 99.4375 207.96 100.792 206.064 102C204.189 103.208 202.21 103.812 200.126 103.812C197.981 103.812 195.991 103.375 194.158 102.5C192.324 101.604 190.72 100.396 189.345 98.875C187.97 97.3542 186.897 95.625 186.126 93.6875C185.376 91.7292 185.001 89.6771 185.001 87.5312C185.001 85.4062 185.376 83.3646 186.126 81.4062C186.897 79.4271 187.97 77.6771 189.345 76.1562C190.741 74.6146 192.366 73.3958 194.22 72.5C196.074 71.6042 198.095 71.1562 200.283 71.1562ZM211.126 87.3438C211.126 85.3229 210.637 83.4479 209.658 81.7188C208.699 79.9688 207.397 78.5521 205.751 77.4688C204.126 76.3854 202.314 75.8438 200.314 75.8438C198.293 75.8438 196.481 76.3958 194.876 77.5C193.272 78.6042 192.001 80.0521 191.064 81.8438C190.147 83.6146 189.689 85.5104 189.689 87.5312C189.689 89.5312 190.147 91.4167 191.064 93.1875C191.981 94.9583 193.22 96.3958 194.783 97.5C196.366 98.5833 198.147 99.125 200.126 99.125C202.126 99.125 203.96 98.5729 205.626 97.4688C207.293 96.3438 208.626 94.8854 209.626 93.0938C210.626 91.2812 211.126 89.3646 211.126 87.3438Z" stroke="#2F2F4F" stroke-width="2" mask="url(#path-14-outside-1_1_24)"/>
</svg>
