<svg width="257" height="62" viewBox="0 0 257 62" fill="none" xmlns="http://www.w3.org/2000/svg">
<rect x="24.1605" y="22" width="21" height="5.03344" transform="rotate(-90 24.1605 22)" fill="#FF1100"/>
<rect x="32.214" y="22" width="21" height="5.03344" transform="rotate(-90 32.214 22)" fill="#FF1100"/>
<rect x="40.2676" y="22" width="21" height="5.03344" transform="rotate(-90 40.2676 22)" fill="#FF1100"/>
<rect x="16.107" y="47" width="21" height="5.03344" transform="rotate(-90 16.107 47)" fill="#215E21"/>
<rect x="8.05347" y="47" width="21" height="5.03344" transform="rotate(-90 8.05347 47)" fill="#215E21"/>
<rect y="47" width="21" height="5.03344" transform="rotate(-90 0 47)" fill="#215E21"/>
<rect y="1" width="21.1405" height="5" fill="#A0030E"/>
<rect y="9" width="21.1405" height="5" fill="#A0030E"/>
<rect y="17" width="21.1405" height="5" fill="#A0030E"/>
<rect x="24.1605" y="26" width="21.1405" height="5" fill="#C2C264"/>
<rect x="24.1605" y="34" width="21.1405" height="5" fill="#C2C264"/>
<rect x="24.1605" y="42" width="21.1405" height="5" fill="#C2C264"/>
<mask id="path-13-outside-1_1_18" maskUnits="userSpaceOnUse" x="57" y="0" width="200" height="62" fill="black">
<rect fill="white" x="57" width="200" height="62"/>
<path d="M58.0014 3.1875C58.0014 2.58333 58.2098 2.07292 58.6264 1.65625C59.0639 1.21875 59.5848 1 60.1889 1C60.7931 1 61.3139 1.21875 61.7514 1.65625C62.1889 2.07292 62.3973 2.59375 62.3764 3.21875V27.5938C64.6473 24.9688 67.0014 22.4271 69.4389 19.9688C71.8764 17.4896 74.2827 14.9896 76.6577 12.4688C77.0743 12.0104 77.6056 11.7812 78.2514 11.7812C78.8556 11.7812 79.366 12 79.7827 12.4375C80.2202 12.8542 80.4389 13.3646 80.4389 13.9688C80.4389 14.5729 80.2306 15.0833 79.8139 15.5L69.0952 26.625L80.2514 41.2812C80.5639 41.6771 80.7202 42.125 80.7202 42.625C80.7202 43.2292 80.5014 43.75 80.0639 44.1875C79.6473 44.6042 79.1368 44.8125 78.5327 44.8125C77.8035 44.8125 77.2202 44.5208 76.7827 43.9375L66.0327 29.4062L62.3764 32.9688V42.5312C62.3764 43.1354 62.1577 43.6562 61.7202 44.0938C61.3035 44.5104 60.7931 44.7188 60.1889 44.7188C59.5848 44.7188 59.0639 44.5 58.6264 44.0625C58.1889 43.625 57.9806 43.1042 58.0014 42.5V3.1875Z"/>
<path d="M110.189 45C109.543 45 109.012 44.7708 108.595 44.3125C108.199 43.8542 108.001 43.3021 108.001 42.6562L107.845 38.9375C107.116 39.8333 106.251 40.75 105.251 41.6875C104.251 42.6042 103.116 43.375 101.845 44C100.574 44.6042 99.1368 44.9062 97.5327 44.9062C94.7827 44.9062 92.5639 44.1979 90.8764 42.7812C89.1889 41.3646 87.9598 39.5 87.1889 37.1875C86.4389 34.875 86.0639 32.3958 86.0639 29.75L86.0952 14.5938C86.0952 13.9479 86.3243 13.3958 86.7827 12.9375C87.241 12.4792 87.7931 12.25 88.4389 12.25C89.1056 12.25 89.6577 12.4792 90.0952 12.9375C90.5535 13.3958 90.7827 13.9583 90.7827 14.625L90.7514 29.75C90.7514 31.5833 90.9389 33.3021 91.3139 34.9062C91.6889 36.4896 92.366 37.7708 93.3452 38.75C94.3452 39.7292 95.741 40.2188 97.5327 40.2188C100.929 40.2188 103.491 39.3125 105.22 37.5C106.949 35.6875 107.814 33.1354 107.814 29.8438V14.5312C107.814 13.8854 108.043 13.3333 108.501 12.875C108.96 12.4167 109.512 12.1875 110.158 12.1875C110.824 12.1875 111.376 12.4167 111.814 12.875C112.272 13.3333 112.501 13.8958 112.501 14.5625L112.533 42.625C112.533 43.2708 112.304 43.8229 111.845 44.2812C111.408 44.7604 110.856 45 110.189 45Z"/>
<path d="M122.408 12.0938C123.054 12.0938 123.574 12.3229 123.97 12.7812C124.387 13.2396 124.595 13.7917 124.595 14.4375L124.751 18.1562C125.501 17.2396 126.366 16.3229 127.345 15.4062C128.345 14.4896 129.481 13.7292 130.751 13.125C132.043 12.5 133.481 12.1875 135.064 12.1875C137.835 12.1875 140.054 12.8958 141.72 14.3125C143.408 15.7292 144.626 17.5938 145.376 19.9062C146.147 22.1979 146.533 24.6771 146.533 27.3438L146.501 42.5C146.501 43.1458 146.272 43.6979 145.814 44.1562C145.356 44.6146 144.804 44.8438 144.158 44.8438C143.512 44.8438 142.96 44.6146 142.501 44.1562C142.043 43.6771 141.814 43.1146 141.814 42.4688L141.845 27.3438C141.845 25.4896 141.658 23.7708 141.283 22.1875C140.908 20.6042 140.231 19.3229 139.251 18.3438C138.272 17.3646 136.876 16.875 135.064 16.875C131.668 16.875 129.106 17.7812 127.376 19.5938C125.647 21.4062 124.783 23.9583 124.783 27.25V42.5625C124.783 43.2083 124.554 43.7604 124.095 44.2188C123.637 44.6771 123.085 44.9062 122.439 44.9062C121.793 44.9062 121.241 44.6667 120.783 44.1875C120.324 43.7292 120.095 43.1771 120.095 42.5312L120.064 14.4688C120.064 13.8021 120.283 13.2396 120.72 12.7812C121.179 12.3229 121.741 12.0938 122.408 12.0938Z"/>
<path d="M156.408 12.0938C157.054 12.0938 157.574 12.3229 157.97 12.7812C158.387 13.2396 158.595 13.7917 158.595 14.4375L158.751 18.1562C159.501 17.2396 160.366 16.3229 161.345 15.4062C162.345 14.4896 163.481 13.7292 164.751 13.125C166.043 12.5 167.481 12.1875 169.064 12.1875C171.835 12.1875 174.054 12.8958 175.72 14.3125C177.408 15.7292 178.626 17.5938 179.376 19.9062C180.147 22.1979 180.533 24.6771 180.533 27.3438L180.501 42.5C180.501 43.1458 180.272 43.6979 179.814 44.1562C179.356 44.6146 178.804 44.8438 178.158 44.8438C177.512 44.8438 176.96 44.6146 176.501 44.1562C176.043 43.6771 175.814 43.1146 175.814 42.4688L175.845 27.3438C175.845 25.4896 175.658 23.7708 175.283 22.1875C174.908 20.6042 174.231 19.3229 173.251 18.3438C172.272 17.3646 170.876 16.875 169.064 16.875C165.668 16.875 163.106 17.7812 161.376 19.5938C159.647 21.4062 158.783 23.9583 158.783 27.25V42.5625C158.783 43.2083 158.554 43.7604 158.095 44.2188C157.637 44.6771 157.085 44.9062 156.439 44.9062C155.793 44.9062 155.241 44.6667 154.783 44.1875C154.324 43.7292 154.095 43.1771 154.095 42.5312L154.064 14.4688C154.064 13.8021 154.283 13.2396 154.72 12.7812C155.179 12.3229 155.741 12.0938 156.408 12.0938Z"/>
<path d="M202.626 12.375C204.793 12.375 206.783 12.9167 208.595 14C210.428 15.0833 212.022 16.3542 213.376 17.8125L213.533 14.625C213.533 13.9792 213.741 13.4271 214.158 12.9688C214.574 12.5104 215.106 12.2812 215.751 12.2812C216.397 12.2812 216.949 12.5104 217.408 12.9688C217.866 13.4271 218.095 13.9792 218.095 14.625L218.064 14.6875L217.845 44.1875C217.824 46.4167 217.366 48.5208 216.47 50.5C215.595 52.4792 214.387 54.2188 212.845 55.7188C211.303 57.2396 209.533 58.4271 207.533 59.2812C205.533 60.1354 203.408 60.5625 201.158 60.5625C198.637 60.5625 196.22 60 193.908 58.875C191.595 57.7708 189.647 56.2292 188.064 54.25C187.71 53.8125 187.533 53.3125 187.533 52.75C187.533 52.1042 187.762 51.5521 188.22 51.0938C188.678 50.6354 189.231 50.4062 189.876 50.4062C190.668 50.4062 191.293 50.7188 191.751 51.3438C192.856 52.7396 194.251 53.8438 195.939 54.6562C197.647 55.4688 199.387 55.875 201.158 55.875C203.324 55.875 205.303 55.3333 207.095 54.25C208.908 53.1875 210.356 51.7604 211.439 49.9688C212.543 48.1979 213.116 46.25 213.158 44.125L213.189 39.4375C211.814 40.8333 210.21 42.0938 208.376 43.2188C206.564 44.3229 204.647 44.875 202.626 44.875C200.481 44.875 198.481 44.4375 196.626 43.5625C194.793 42.6667 193.189 41.4583 191.814 39.9375C190.439 38.4167 189.366 36.6875 188.595 34.75C187.824 32.7917 187.439 30.75 187.439 28.625C187.439 26.5 187.814 24.4688 188.564 22.5312C189.335 20.5938 190.408 18.8646 191.783 17.3438C193.158 15.8021 194.762 14.5938 196.595 13.7188C198.449 12.8229 200.46 12.375 202.626 12.375ZM213.095 28.625C213.095 26.6042 212.637 24.7188 211.72 22.9688C210.824 21.2188 209.585 19.8021 208.001 18.7188C206.418 17.6146 204.626 17.0625 202.626 17.0625C200.606 17.0625 198.803 17.6146 197.22 18.7188C195.658 19.8021 194.418 21.2188 193.501 22.9688C192.606 24.7188 192.158 26.6042 192.158 28.625C192.158 30.625 192.616 32.5104 193.533 34.2812C194.449 36.0312 195.689 37.4583 197.251 38.5625C198.835 39.6458 200.626 40.1875 202.626 40.1875C204.626 40.1875 206.408 39.6458 207.97 38.5625C209.553 37.4583 210.803 36.0312 211.72 34.2812C212.637 32.5104 213.095 30.625 213.095 28.625Z"/>
<path d="M240.283 12.1562C242.512 12.1562 244.512 12.8021 246.283 14.0938C248.074 15.3854 249.637 16.75 250.97 18.1875L251.251 14.25C251.251 13.6458 251.418 13.1354 251.751 12.7188C252.085 12.2812 252.553 12.0625 253.158 12.0625C253.762 12.0625 254.272 12.2812 254.689 12.7188C255.126 13.1354 255.345 13.6458 255.345 14.25V42.5C255.345 43.1042 255.126 43.625 254.689 44.0625C254.272 44.4792 253.762 44.6875 253.158 44.6875C252.553 44.6875 252.033 44.4792 251.595 44.0625C251.178 43.625 250.97 43.1042 250.97 42.5V38.9375C249.595 40.4375 247.96 41.7917 246.064 43C244.189 44.2083 242.21 44.8125 240.126 44.8125C237.981 44.8125 235.991 44.375 234.158 43.5C232.324 42.6042 230.72 41.3958 229.345 39.875C227.97 38.3542 226.897 36.625 226.126 34.6875C225.376 32.7292 225.001 30.6771 225.001 28.5312C225.001 26.4062 225.376 24.3646 226.126 22.4062C226.897 20.4271 227.97 18.6771 229.345 17.1562C230.741 15.6146 232.366 14.3958 234.22 13.5C236.074 12.6042 238.095 12.1562 240.283 12.1562ZM251.126 28.3438C251.126 26.3229 250.637 24.4479 249.658 22.7188C248.699 20.9688 247.397 19.5521 245.751 18.4688C244.126 17.3854 242.314 16.8438 240.314 16.8438C238.293 16.8438 236.481 17.3958 234.876 18.5C233.272 19.6042 232.001 21.0521 231.064 22.8438C230.147 24.6146 229.689 26.5104 229.689 28.5312C229.689 30.5312 230.147 32.4167 231.064 34.1875C231.981 35.9583 233.22 37.3958 234.783 38.5C236.366 39.5833 238.147 40.125 240.126 40.125C242.126 40.125 243.96 39.5729 245.626 38.4688C247.293 37.3438 248.626 35.8854 249.626 34.0938C250.626 32.2812 251.126 30.3646 251.126 28.3438Z"/>
</mask>
<path d="M58.0014 3.1875C58.0014 2.58333 58.2098 2.07292 58.6264 1.65625C59.0639 1.21875 59.5848 1 60.1889 1C60.7931 1 61.3139 1.21875 61.7514 1.65625C62.1889 2.07292 62.3973 2.59375 62.3764 3.21875V27.5938C64.6473 24.9688 67.0014 22.4271 69.4389 19.9688C71.8764 17.4896 74.2827 14.9896 76.6577 12.4688C77.0743 12.0104 77.6056 11.7812 78.2514 11.7812C78.8556 11.7812 79.366 12 79.7827 12.4375C80.2202 12.8542 80.4389 13.3646 80.4389 13.9688C80.4389 14.5729 80.2306 15.0833 79.8139 15.5L69.0952 26.625L80.2514 41.2812C80.5639 41.6771 80.7202 42.125 80.7202 42.625C80.7202 43.2292 80.5014 43.75 80.0639 44.1875C79.6473 44.6042 79.1368 44.8125 78.5327 44.8125C77.8035 44.8125 77.2202 44.5208 76.7827 43.9375L66.0327 29.4062L62.3764 32.9688V42.5312C62.3764 43.1354 62.1577 43.6562 61.7202 44.0938C61.3035 44.5104 60.7931 44.7188 60.1889 44.7188C59.5848 44.7188 59.0639 44.5 58.6264 44.0625C58.1889 43.625 57.9806 43.1042 58.0014 42.5V3.1875Z" fill="#2F2F4F"/>
<path d="M110.189 45C109.543 45 109.012 44.7708 108.595 44.3125C108.199 43.8542 108.001 43.3021 108.001 42.6562L107.845 38.9375C107.116 39.8333 106.251 40.75 105.251 41.6875C104.251 42.6042 103.116 43.375 101.845 44C100.574 44.6042 99.1368 44.9062 97.5327 44.9062C94.7827 44.9062 92.5639 44.1979 90.8764 42.7812C89.1889 41.3646 87.9598 39.5 87.1889 37.1875C86.4389 34.875 86.0639 32.3958 86.0639 29.75L86.0952 14.5938C86.0952 13.9479 86.3243 13.3958 86.7827 12.9375C87.241 12.4792 87.7931 12.25 88.4389 12.25C89.1056 12.25 89.6577 12.4792 90.0952 12.9375C90.5535 13.3958 90.7827 13.9583 90.7827 14.625L90.7514 29.75C90.7514 31.5833 90.9389 33.3021 91.3139 34.9062C91.6889 36.4896 92.366 37.7708 93.3452 38.75C94.3452 39.7292 95.741 40.2188 97.5327 40.2188C100.929 40.2188 103.491 39.3125 105.22 37.5C106.949 35.6875 107.814 33.1354 107.814 29.8438V14.5312C107.814 13.8854 108.043 13.3333 108.501 12.875C108.96 12.4167 109.512 12.1875 110.158 12.1875C110.824 12.1875 111.376 12.4167 111.814 12.875C112.272 13.3333 112.501 13.8958 112.501 14.5625L112.533 42.625C112.533 43.2708 112.304 43.8229 111.845 44.2812C111.408 44.7604 110.856 45 110.189 45Z" fill="#2F2F4F"/>
<path d="M122.408 12.0938C123.054 12.0938 123.574 12.3229 123.97 12.7812C124.387 13.2396 124.595 13.7917 124.595 14.4375L124.751 18.1562C125.501 17.2396 126.366 16.3229 127.345 15.4062C128.345 14.4896 129.481 13.7292 130.751 13.125C132.043 12.5 133.481 12.1875 135.064 12.1875C137.835 12.1875 140.054 12.8958 141.72 14.3125C143.408 15.7292 144.626 17.5938 145.376 19.9062C146.147 22.1979 146.533 24.6771 146.533 27.3438L146.501 42.5C146.501 43.1458 146.272 43.6979 145.814 44.1562C145.356 44.6146 144.804 44.8438 144.158 44.8438C143.512 44.8438 142.96 44.6146 142.501 44.1562C142.043 43.6771 141.814 43.1146 141.814 42.4688L141.845 27.3438C141.845 25.4896 141.658 23.7708 141.283 22.1875C140.908 20.6042 140.231 19.3229 139.251 18.3438C138.272 17.3646 136.876 16.875 135.064 16.875C131.668 16.875 129.106 17.7812 127.376 19.5938C125.647 21.4062 124.783 23.9583 124.783 27.25V42.5625C124.783 43.2083 124.554 43.7604 124.095 44.2188C123.637 44.6771 123.085 44.9062 122.439 44.9062C121.793 44.9062 121.241 44.6667 120.783 44.1875C120.324 43.7292 120.095 43.1771 120.095 42.5312L120.064 14.4688C120.064 13.8021 120.283 13.2396 120.72 12.7812C121.179 12.3229 121.741 12.0938 122.408 12.0938Z" fill="#2F2F4F"/>
<path d="M156.408 12.0938C157.054 12.0938 157.574 12.3229 157.97 12.7812C158.387 13.2396 158.595 13.7917 158.595 14.4375L158.751 18.1562C159.501 17.2396 160.366 16.3229 161.345 15.4062C162.345 14.4896 163.481 13.7292 164.751 13.125C166.043 12.5 167.481 12.1875 169.064 12.1875C171.835 12.1875 174.054 12.8958 175.72 14.3125C177.408 15.7292 178.626 17.5938 179.376 19.9062C180.147 22.1979 180.533 24.6771 180.533 27.3438L180.501 42.5C180.501 43.1458 180.272 43.6979 179.814 44.1562C179.356 44.6146 178.804 44.8438 178.158 44.8438C177.512 44.8438 176.96 44.6146 176.501 44.1562C176.043 43.6771 175.814 43.1146 175.814 42.4688L175.845 27.3438C175.845 25.4896 175.658 23.7708 175.283 22.1875C174.908 20.6042 174.231 19.3229 173.251 18.3438C172.272 17.3646 170.876 16.875 169.064 16.875C165.668 16.875 163.106 17.7812 161.376 19.5938C159.647 21.4062 158.783 23.9583 158.783 27.25V42.5625C158.783 43.2083 158.554 43.7604 158.095 44.2188C157.637 44.6771 157.085 44.9062 156.439 44.9062C155.793 44.9062 155.241 44.6667 154.783 44.1875C154.324 43.7292 154.095 43.1771 154.095 42.5312L154.064 14.4688C154.064 13.8021 154.283 13.2396 154.72 12.7812C155.179 12.3229 155.741 12.0938 156.408 12.0938Z" fill="#2F2F4F"/>
<path d="M202.626 12.375C204.793 12.375 206.783 12.9167 208.595 14C210.428 15.0833 212.022 16.3542 213.376 17.8125L213.533 14.625C213.533 13.9792 213.741 13.4271 214.158 12.9688C214.574 12.5104 215.106 12.2812 215.751 12.2812C216.397 12.2812 216.949 12.5104 217.408 12.9688C217.866 13.4271 218.095 13.9792 218.095 14.625L218.064 14.6875L217.845 44.1875C217.824 46.4167 217.366 48.5208 216.47 50.5C215.595 52.4792 214.387 54.2188 212.845 55.7188C211.303 57.2396 209.533 58.4271 207.533 59.2812C205.533 60.1354 203.408 60.5625 201.158 60.5625C198.637 60.5625 196.22 60 193.908 58.875C191.595 57.7708 189.647 56.2292 188.064 54.25C187.71 53.8125 187.533 53.3125 187.533 52.75C187.533 52.1042 187.762 51.5521 188.22 51.0938C188.678 50.6354 189.231 50.4062 189.876 50.4062C190.668 50.4062 191.293 50.7188 191.751 51.3438C192.856 52.7396 194.251 53.8438 195.939 54.6562C197.647 55.4688 199.387 55.875 201.158 55.875C203.324 55.875 205.303 55.3333 207.095 54.25C208.908 53.1875 210.356 51.7604 211.439 49.9688C212.543 48.1979 213.116 46.25 213.158 44.125L213.189 39.4375C211.814 40.8333 210.21 42.0938 208.376 43.2188C206.564 44.3229 204.647 44.875 202.626 44.875C200.481 44.875 198.481 44.4375 196.626 43.5625C194.793 42.6667 193.189 41.4583 191.814 39.9375C190.439 38.4167 189.366 36.6875 188.595 34.75C187.824 32.7917 187.439 30.75 187.439 28.625C187.439 26.5 187.814 24.4688 188.564 22.5312C189.335 20.5938 190.408 18.8646 191.783 17.3438C193.158 15.8021 194.762 14.5938 196.595 13.7188C198.449 12.8229 200.46 12.375 202.626 12.375ZM213.095 28.625C213.095 26.6042 212.637 24.7188 211.72 22.9688C210.824 21.2188 209.585 19.8021 208.001 18.7188C206.418 17.6146 204.626 17.0625 202.626 17.0625C200.606 17.0625 198.803 17.6146 197.22 18.7188C195.658 19.8021 194.418 21.2188 193.501 22.9688C192.606 24.7188 192.158 26.6042 192.158 28.625C192.158 30.625 192.616 32.5104 193.533 34.2812C194.449 36.0312 195.689 37.4583 197.251 38.5625C198.835 39.6458 200.626 40.1875 202.626 40.1875C204.626 40.1875 206.408 39.6458 207.97 38.5625C209.553 37.4583 210.803 36.0312 211.72 34.2812C212.637 32.5104 213.095 30.625 213.095 28.625Z" fill="#2F2F4F"/>
<path d="M240.283 12.1562C242.512 12.1562 244.512 12.8021 246.283 14.0938C248.074 15.3854 249.637 16.75 250.97 18.1875L251.251 14.25C251.251 13.6458 251.418 13.1354 251.751 12.7188C252.085 12.2812 252.553 12.0625 253.158 12.0625C253.762 12.0625 254.272 12.2812 254.689 12.7188C255.126 13.1354 255.345 13.6458 255.345 14.25V42.5C255.345 43.1042 255.126 43.625 254.689 44.0625C254.272 44.4792 253.762 44.6875 253.158 44.6875C252.553 44.6875 252.033 44.4792 251.595 44.0625C251.178 43.625 250.97 43.1042 250.97 42.5V38.9375C249.595 40.4375 247.96 41.7917 246.064 43C244.189 44.2083 242.21 44.8125 240.126 44.8125C237.981 44.8125 235.991 44.375 234.158 43.5C232.324 42.6042 230.72 41.3958 229.345 39.875C227.97 38.3542 226.897 36.625 226.126 34.6875C225.376 32.7292 225.001 30.6771 225.001 28.5312C225.001 26.4062 225.376 24.3646 226.126 22.4062C226.897 20.4271 227.97 18.6771 229.345 17.1562C230.741 15.6146 232.366 14.3958 234.22 13.5C236.074 12.6042 238.095 12.1562 240.283 12.1562ZM251.126 28.3438C251.126 26.3229 250.637 24.4479 249.658 22.7188C248.699 20.9688 247.397 19.5521 245.751 18.4688C244.126 17.3854 242.314 16.8438 240.314 16.8438C238.293 16.8438 236.481 17.3958 234.876 18.5C233.272 19.6042 232.001 21.0521 231.064 22.8438C230.147 24.6146 229.689 26.5104 229.689 28.5312C229.689 30.5312 230.147 32.4167 231.064 34.1875C231.981 35.9583 233.22 37.3958 234.783 38.5C236.366 39.5833 238.147 40.125 240.126 40.125C242.126 40.125 243.96 39.5729 245.626 38.4688C247.293 37.3438 248.626 35.8854 249.626 34.0938C250.626 32.2812 251.126 30.3646 251.126 28.3438Z" fill="#2F2F4F"/>
<path d="M58.0014 3.1875C58.0014 2.58333 58.2098 2.07292 58.6264 1.65625C59.0639 1.21875 59.5848 1 60.1889 1C60.7931 1 61.3139 1.21875 61.7514 1.65625C62.1889 2.07292 62.3973 2.59375 62.3764 3.21875V27.5938C64.6473 24.9688 67.0014 22.4271 69.4389 19.9688C71.8764 17.4896 74.2827 14.9896 76.6577 12.4688C77.0743 12.0104 77.6056 11.7812 78.2514 11.7812C78.8556 11.7812 79.366 12 79.7827 12.4375C80.2202 12.8542 80.4389 13.3646 80.4389 13.9688C80.4389 14.5729 80.2306 15.0833 79.8139 15.5L69.0952 26.625L80.2514 41.2812C80.5639 41.6771 80.7202 42.125 80.7202 42.625C80.7202 43.2292 80.5014 43.75 80.0639 44.1875C79.6473 44.6042 79.1368 44.8125 78.5327 44.8125C77.8035 44.8125 77.2202 44.5208 76.7827 43.9375L66.0327 29.4062L62.3764 32.9688V42.5312C62.3764 43.1354 62.1577 43.6562 61.7202 44.0938C61.3035 44.5104 60.7931 44.7188 60.1889 44.7188C59.5848 44.7188 59.0639 44.5 58.6264 44.0625C58.1889 43.625 57.9806 43.1042 58.0014 42.5V3.1875Z" stroke="#2F2F4F" stroke-width="2" mask="url(#path-13-outside-1_1_18)"/>
<path d="M110.189 45C109.543 45 109.012 44.7708 108.595 44.3125C108.199 43.8542 108.001 43.3021 108.001 42.6562L107.845 38.9375C107.116 39.8333 106.251 40.75 105.251 41.6875C104.251 42.6042 103.116 43.375 101.845 44C100.574 44.6042 99.1368 44.9062 97.5327 44.9062C94.7827 44.9062 92.5639 44.1979 90.8764 42.7812C89.1889 41.3646 87.9598 39.5 87.1889 37.1875C86.4389 34.875 86.0639 32.3958 86.0639 29.75L86.0952 14.5938C86.0952 13.9479 86.3243 13.3958 86.7827 12.9375C87.241 12.4792 87.7931 12.25 88.4389 12.25C89.1056 12.25 89.6577 12.4792 90.0952 12.9375C90.5535 13.3958 90.7827 13.9583 90.7827 14.625L90.7514 29.75C90.7514 31.5833 90.9389 33.3021 91.3139 34.9062C91.6889 36.4896 92.366 37.7708 93.3452 38.75C94.3452 39.7292 95.741 40.2188 97.5327 40.2188C100.929 40.2188 103.491 39.3125 105.22 37.5C106.949 35.6875 107.814 33.1354 107.814 29.8438V14.5312C107.814 13.8854 108.043 13.3333 108.501 12.875C108.96 12.4167 109.512 12.1875 110.158 12.1875C110.824 12.1875 111.376 12.4167 111.814 12.875C112.272 13.3333 112.501 13.8958 112.501 14.5625L112.533 42.625C112.533 43.2708 112.304 43.8229 111.845 44.2812C111.408 44.7604 110.856 45 110.189 45Z" stroke="#2F2F4F" stroke-width="2" mask="url(#path-13-outside-1_1_18)"/>
<path d="M122.408 12.0938C123.054 12.0938 123.574 12.3229 123.97 12.7812C124.387 13.2396 124.595 13.7917 124.595 14.4375L124.751 18.1562C125.501 17.2396 126.366 16.3229 127.345 15.4062C128.345 14.4896 129.481 13.7292 130.751 13.125C132.043 12.5 133.481 12.1875 135.064 12.1875C137.835 12.1875 140.054 12.8958 141.72 14.3125C143.408 15.7292 144.626 17.5938 145.376 19.9062C146.147 22.1979 146.533 24.6771 146.533 27.3438L146.501 42.5C146.501 43.1458 146.272 43.6979 145.814 44.1562C145.356 44.6146 144.804 44.8438 144.158 44.8438C143.512 44.8438 142.96 44.6146 142.501 44.1562C142.043 43.6771 141.814 43.1146 141.814 42.4688L141.845 27.3438C141.845 25.4896 141.658 23.7708 141.283 22.1875C140.908 20.6042 140.231 19.3229 139.251 18.3438C138.272 17.3646 136.876 16.875 135.064 16.875C131.668 16.875 129.106 17.7812 127.376 19.5938C125.647 21.4062 124.783 23.9583 124.783 27.25V42.5625C124.783 43.2083 124.554 43.7604 124.095 44.2188C123.637 44.6771 123.085 44.9062 122.439 44.9062C121.793 44.9062 121.241 44.6667 120.783 44.1875C120.324 43.7292 120.095 43.1771 120.095 42.5312L120.064 14.4688C120.064 13.8021 120.283 13.2396 120.72 12.7812C121.179 12.3229 121.741 12.0938 122.408 12.0938Z" stroke="#2F2F4F" stroke-width="2" mask="url(#path-13-outside-1_1_18)"/>
<path d="M156.408 12.0938C157.054 12.0938 157.574 12.3229 157.97 12.7812C158.387 13.2396 158.595 13.7917 158.595 14.4375L158.751 18.1562C159.501 17.2396 160.366 16.3229 161.345 15.4062C162.345 14.4896 163.481 13.7292 164.751 13.125C166.043 12.5 167.481 12.1875 169.064 12.1875C171.835 12.1875 174.054 12.8958 175.72 14.3125C177.408 15.7292 178.626 17.5938 179.376 19.9062C180.147 22.1979 180.533 24.6771 180.533 27.3438L180.501 42.5C180.501 43.1458 180.272 43.6979 179.814 44.1562C179.356 44.6146 178.804 44.8438 178.158 44.8438C177.512 44.8438 176.96 44.6146 176.501 44.1562C176.043 43.6771 175.814 43.1146 175.814 42.4688L175.845 27.3438C175.845 25.4896 175.658 23.7708 175.283 22.1875C174.908 20.6042 174.231 19.3229 173.251 18.3438C172.272 17.3646 170.876 16.875 169.064 16.875C165.668 16.875 163.106 17.7812 161.376 19.5938C159.647 21.4062 158.783 23.9583 158.783 27.25V42.5625C158.783 43.2083 158.554 43.7604 158.095 44.2188C157.637 44.6771 157.085 44.9062 156.439 44.9062C155.793 44.9062 155.241 44.6667 154.783 44.1875C154.324 43.7292 154.095 43.1771 154.095 42.5312L154.064 14.4688C154.064 13.8021 154.283 13.2396 154.72 12.7812C155.179 12.3229 155.741 12.0938 156.408 12.0938Z" stroke="#2F2F4F" stroke-width="2" mask="url(#path-13-outside-1_1_18)"/>
<path d="M202.626 12.375C204.793 12.375 206.783 12.9167 208.595 14C210.428 15.0833 212.022 16.3542 213.376 17.8125L213.533 14.625C213.533 13.9792 213.741 13.4271 214.158 12.9688C214.574 12.5104 215.106 12.2812 215.751 12.2812C216.397 12.2812 216.949 12.5104 217.408 12.9688C217.866 13.4271 218.095 13.9792 218.095 14.625L218.064 14.6875L217.845 44.1875C217.824 46.4167 217.366 48.5208 216.47 50.5C215.595 52.4792 214.387 54.2188 212.845 55.7188C211.303 57.2396 209.533 58.4271 207.533 59.2812C205.533 60.1354 203.408 60.5625 201.158 60.5625C198.637 60.5625 196.22 60 193.908 58.875C191.595 57.7708 189.647 56.2292 188.064 54.25C187.71 53.8125 187.533 53.3125 187.533 52.75C187.533 52.1042 187.762 51.5521 188.22 51.0938C188.678 50.6354 189.231 50.4062 189.876 50.4062C190.668 50.4062 191.293 50.7188 191.751 51.3438C192.856 52.7396 194.251 53.8438 195.939 54.6562C197.647 55.4688 199.387 55.875 201.158 55.875C203.324 55.875 205.303 55.3333 207.095 54.25C208.908 53.1875 210.356 51.7604 211.439 49.9688C212.543 48.1979 213.116 46.25 213.158 44.125L213.189 39.4375C211.814 40.8333 210.21 42.0938 208.376 43.2188C206.564 44.3229 204.647 44.875 202.626 44.875C200.481 44.875 198.481 44.4375 196.626 43.5625C194.793 42.6667 193.189 41.4583 191.814 39.9375C190.439 38.4167 189.366 36.6875 188.595 34.75C187.824 32.7917 187.439 30.75 187.439 28.625C187.439 26.5 187.814 24.4688 188.564 22.5312C189.335 20.5938 190.408 18.8646 191.783 17.3438C193.158 15.8021 194.762 14.5938 196.595 13.7188C198.449 12.8229 200.46 12.375 202.626 12.375ZM213.095 28.625C213.095 26.6042 212.637 24.7188 211.72 22.9688C210.824 21.2188 209.585 19.8021 208.001 18.7188C206.418 17.6146 204.626 17.0625 202.626 17.0625C200.606 17.0625 198.803 17.6146 197.22 18.7188C195.658 19.8021 194.418 21.2188 193.501 22.9688C192.606 24.7188 192.158 26.6042 192.158 28.625C192.158 30.625 192.616 32.5104 193.533 34.2812C194.449 36.0312 195.689 37.4583 197.251 38.5625C198.835 39.6458 200.626 40.1875 202.626 40.1875C204.626 40.1875 206.408 39.6458 207.97 38.5625C209.553 37.4583 210.803 36.0312 211.72 34.2812C212.637 32.5104 213.095 30.625 213.095 28.625Z" stroke="#2F2F4F" stroke-width="2" mask="url(#path-13-outside-1_1_18)"/>
<path d="M240.283 12.1562C242.512 12.1562 244.512 12.8021 246.283 14.0938C248.074 15.3854 249.637 16.75 250.97 18.1875L251.251 14.25C251.251 13.6458 251.418 13.1354 251.751 12.7188C252.085 12.2812 252.553 12.0625 253.158 12.0625C253.762 12.0625 254.272 12.2812 254.689 12.7188C255.126 13.1354 255.345 13.6458 255.345 14.25V42.5C255.345 43.1042 255.126 43.625 254.689 44.0625C254.272 44.4792 253.762 44.6875 253.158 44.6875C252.553 44.6875 252.033 44.4792 251.595 44.0625C251.178 43.625 250.97 43.1042 250.97 42.5V38.9375C249.595 40.4375 247.96 41.7917 246.064 43C244.189 44.2083 242.21 44.8125 240.126 44.8125C237.981 44.8125 235.991 44.375 234.158 43.5C232.324 42.6042 230.72 41.3958 229.345 39.875C227.97 38.3542 226.897 36.625 226.126 34.6875C225.376 32.7292 225.001 30.6771 225.001 28.5312C225.001 26.4062 225.376 24.3646 226.126 22.4062C226.897 20.4271 227.97 18.6771 229.345 17.1562C230.741 15.6146 232.366 14.3958 234.22 13.5C236.074 12.6042 238.095 12.1562 240.283 12.1562ZM251.126 28.3438C251.126 26.3229 250.637 24.4479 249.658 22.7188C248.699 20.9688 247.397 19.5521 245.751 18.4688C244.126 17.3854 242.314 16.8438 240.314 16.8438C238.293 16.8438 236.481 17.3958 234.876 18.5C233.272 19.6042 232.001 21.0521 231.064 22.8438C230.147 24.6146 229.689 26.5104 229.689 28.5312C229.689 30.5312 230.147 32.4167 231.064 34.1875C231.981 35.9583 233.22 37.3958 234.783 38.5C236.366 39.5833 238.147 40.125 240.126 40.125C242.126 40.125 243.96 39.5729 245.626 38.4688C247.293 37.3438 248.626 35.8854 249.626 34.0938C250.626 32.2812 251.126 30.3646 251.126 28.3438Z" stroke="#2F2F4F" stroke-width="2" mask="url(#path-13-outside-1_1_18)"/>
</svg>
